<svg width="565" height="122" viewBox="0 0 565 122" fill="none" xmlns="http://www.w3.org/2000/svg">
<g filter="url(#filter0_d_9_36)">
<rect x="16" width="533" height="90" rx="20" fill="#F6FAFD"/>
</g>
<g clip-path="url(#clip0_9_36)">
<path d="M83.025 53.8899L85.9561 35.1742C86.2609 33.275 84.9686 31.488 83.0693 31.1823L43.5175 24.8341C41.6183 24.5293 39.8313 25.8216 39.5266 27.7208L38.1211 36.4734V53.781L83.025 53.8899Z" fill="#146AA8"/>
<path d="M83.0669 31.1822L71.8333 29.3796C64.2885 40.9241 52.0918 48.9199 42.7383 53.7922L83.0225 53.8897L85.9536 35.1741C86.2584 33.2747 84.9661 31.4878 83.0669 31.1822Z" fill="#126099"/>
<path d="M39.4833 35.6025H79.541C81.4647 35.6025 83.0243 37.1622 83.0243 39.0858V61.7272C83.0243 63.6508 81.4647 65.2105 79.541 65.2105H39.4833C37.5597 65.2104 36 63.6508 36 61.7272V39.0858C36 37.1622 37.5597 35.6025 39.4833 35.6025Z" fill="#4398D1"/>
<path d="M79.5413 35.6025H78.8447C70.6241 50.1967 55.2638 60.2076 45.8867 65.2104H79.5413C81.465 65.2104 83.0246 63.6507 83.0246 61.7271V39.0858C83.0246 37.1622 81.465 35.6025 79.5413 35.6025Z" fill="#3E8CC7"/>
<path d="M49.0637 39.9568H40.3555V46.9234H49.0637V39.9568Z" fill="#FDB62F"/>
<path d="M42.968 42.5693H40.3555V44.3109H42.968V42.5693Z" fill="#FD7B2F"/>
<path d="M49.0656 42.5693H46.4531V44.3109H49.0656V42.5693Z" fill="#FD7B2F"/>
<path d="M74.315 60.8564C76.7197 60.8564 78.6691 58.907 78.6691 56.5023C78.6691 54.0976 76.7197 52.1482 74.315 52.1482C71.9103 52.1482 69.9609 54.0976 69.9609 56.5023C69.9609 58.907 71.9103 60.8564 74.315 60.8564Z" fill="#FDB62F"/>
<path d="M69.0924 60.8564C71.4971 60.8564 73.4465 58.907 73.4465 56.5023C73.4465 54.0976 71.4971 52.1482 69.0924 52.1482C66.6877 52.1482 64.7383 54.0976 64.7383 56.5023C64.7383 58.907 66.6877 60.8564 69.0924 60.8564Z" fill="#DE4C3C"/>
<path d="M44.7093 53.019H39.4844V54.7606H44.7093V53.019Z" fill="#87CED9"/>
<path d="M53.4163 53.019H48.1914V54.7606H53.4163V53.019Z" fill="#87CED9"/>
<path d="M62.1272 53.019H56.9023V54.7606H62.1272V53.019Z" fill="#87CED9"/>
<path d="M62.1257 58.2441H39.4844V59.9857H62.1257V58.2441Z" fill="#87CED9"/>
<path d="M68.2221 39.9568H66.4805V43.4401H68.2221V39.9568Z" fill="#87CED9"/>
<path d="M71.7064 39.9568H69.9648V43.4401H71.7064V39.9568Z" fill="#87CED9"/>
<path d="M75.1869 39.9568H73.4453V43.4401H75.1869V39.9568Z" fill="#87CED9"/>
<path d="M78.6713 39.9568H76.9297V43.4401H78.6713V39.9568Z" fill="#87CED9"/>
</g>
<path d="M121.95 51.084C120.979 51.084 120.097 50.8693 119.304 50.44C118.52 50.0013 117.904 49.404 117.456 48.648C117.017 47.892 116.798 47.0427 116.798 46.1C116.798 45.1573 117.017 44.308 117.456 43.552C117.904 42.796 118.52 42.2033 119.304 41.774C120.097 41.3353 120.979 41.116 121.95 41.116C122.921 41.116 123.793 41.3307 124.568 41.76C125.352 42.1893 125.968 42.7867 126.416 43.552C126.864 44.308 127.088 45.1573 127.088 46.1C127.088 47.0427 126.864 47.8967 126.416 48.662C125.968 49.418 125.352 50.0107 124.568 50.44C123.793 50.8693 122.921 51.084 121.95 51.084ZM121.95 50.16C122.725 50.16 123.425 49.9873 124.05 49.642C124.675 49.2873 125.165 48.802 125.52 48.186C125.875 47.5607 126.052 46.8653 126.052 46.1C126.052 45.3347 125.875 44.644 125.52 44.028C125.165 43.4027 124.675 42.9173 124.05 42.572C123.425 42.2173 122.725 42.04 121.95 42.04C121.175 42.04 120.471 42.2173 119.836 42.572C119.211 42.9173 118.716 43.4027 118.352 44.028C117.997 44.644 117.82 45.3347 117.82 46.1C117.82 46.8653 117.997 47.5607 118.352 48.186C118.716 48.802 119.211 49.2873 119.836 49.642C120.471 49.9873 121.175 50.16 121.95 50.16ZM135.93 43.636V51H134.936V44.518H130.316V51H129.322V43.636H135.93ZM144.776 43.636V51H143.782V44.518H140.254L140.156 46.338C140.081 47.8687 139.904 49.0447 139.624 49.866C139.344 50.6873 138.844 51.098 138.126 51.098C137.93 51.098 137.692 51.0607 137.412 50.986L137.482 50.132C137.65 50.1693 137.766 50.188 137.832 50.188C138.214 50.188 138.504 50.0107 138.7 49.656C138.896 49.3013 139.026 48.8627 139.092 48.34C139.157 47.8173 139.213 47.1267 139.26 46.268L139.386 43.636H144.776ZM150.136 43.58C151.097 43.58 151.834 43.8227 152.348 44.308C152.861 44.784 153.118 45.4933 153.118 46.436V51H152.166V49.852C151.942 50.2347 151.61 50.5333 151.172 50.748C150.742 50.9627 150.229 51.07 149.632 51.07C148.81 51.07 148.157 50.874 147.672 50.482C147.186 50.09 146.944 49.572 146.944 48.928C146.944 48.3027 147.168 47.7987 147.616 47.416C148.073 47.0333 148.796 46.842 149.785 46.842H152.124V46.394C152.124 45.7593 151.946 45.2787 151.592 44.952C151.237 44.616 150.719 44.448 150.038 44.448C149.571 44.448 149.123 44.5273 148.694 44.686C148.264 44.8353 147.896 45.0453 147.588 45.316L147.14 44.574C147.513 44.2567 147.961 44.014 148.484 43.846C149.006 43.6687 149.557 43.58 150.136 43.58ZM149.785 50.286C150.346 50.286 150.826 50.16 151.228 49.908C151.629 49.6467 151.928 49.2733 152.124 48.788V47.584H149.814C148.554 47.584 147.924 48.0227 147.924 48.9C147.924 49.3293 148.087 49.67 148.414 49.922C148.74 50.1647 149.198 50.286 149.785 50.286ZM161.322 43.636V51H160.328V47.934C159.478 48.3073 158.643 48.494 157.822 48.494C156.935 48.494 156.244 48.2933 155.75 47.892C155.255 47.4813 155.008 46.87 155.008 46.058V43.636H156.002V46.002C156.002 46.5527 156.179 46.9727 156.534 47.262C156.888 47.542 157.378 47.682 158.004 47.682C158.694 47.682 159.469 47.5 160.328 47.136V43.636H161.322ZM164.144 43.636H165.138V49.488L170.052 43.636H170.934V51H169.94V45.148L165.04 51H164.144V43.636ZM178.473 47.192C179.472 47.4253 179.971 48.0273 179.971 48.998C179.971 49.642 179.733 50.1367 179.257 50.482C178.781 50.8273 178.072 51 177.129 51H173.783V43.636H177.031C177.871 43.636 178.529 43.7993 179.005 44.126C179.481 44.4527 179.719 44.9193 179.719 45.526C179.719 45.9273 179.607 46.2727 179.383 46.562C179.168 46.842 178.865 47.052 178.473 47.192ZM174.749 46.912H176.961C177.53 46.912 177.964 46.8047 178.263 46.59C178.571 46.3753 178.725 46.0627 178.725 45.652C178.725 45.2413 178.571 44.9333 178.263 44.728C177.964 44.5227 177.53 44.42 176.961 44.42H174.749V46.912ZM177.087 50.216C177.722 50.216 178.198 50.1133 178.515 49.908C178.832 49.7027 178.991 49.3807 178.991 48.942C178.991 48.5033 178.846 48.1813 178.557 47.976C178.268 47.7613 177.81 47.654 177.185 47.654H174.749V50.216H177.087ZM184.835 43.58C185.796 43.58 186.533 43.8227 187.047 44.308C187.56 44.784 187.817 45.4933 187.817 46.436V51H186.865V49.852C186.641 50.2347 186.309 50.5333 185.871 50.748C185.441 50.9627 184.928 51.07 184.331 51.07C183.509 51.07 182.856 50.874 182.371 50.482C181.885 50.09 181.643 49.572 181.643 48.928C181.643 48.3027 181.867 47.7987 182.315 47.416C182.772 47.0333 183.495 46.842 184.485 46.842H186.823V46.394C186.823 45.7593 186.645 45.2787 186.291 44.952C185.936 44.616 185.418 44.448 184.737 44.448C184.27 44.448 183.822 44.5273 183.393 44.686C182.963 44.8353 182.595 45.0453 182.287 45.316L181.839 44.574C182.212 44.2567 182.66 44.014 183.183 43.846C183.705 43.6687 184.256 43.58 184.835 43.58ZM184.485 50.286C185.045 50.286 185.525 50.16 185.927 49.908C186.328 49.6467 186.627 49.2733 186.823 48.788V47.584H184.513C183.253 47.584 182.623 48.0227 182.623 48.9C182.623 49.3293 182.786 49.67 183.113 49.922C183.439 50.1647 183.897 50.286 184.485 50.286ZM190.463 43.636H191.457V49.488L196.371 43.636H197.253V51H196.259V45.148L191.359 51H190.463V43.636ZM193.809 42.572C193.174 42.572 192.67 42.4133 192.297 42.096C191.923 41.7787 191.732 41.3307 191.723 40.752H192.437C192.446 41.116 192.577 41.41 192.829 41.634C193.081 41.8487 193.407 41.956 193.809 41.956C194.21 41.956 194.537 41.8487 194.789 41.634C195.05 41.41 195.185 41.116 195.195 40.752H195.909C195.899 41.3307 195.703 41.7787 195.321 42.096C194.947 42.4133 194.443 42.572 193.809 42.572ZM205.282 44.518H202.496V51H201.502V44.518H198.716V43.636H205.282V44.518ZM212.817 47.626H206.657C206.713 48.3913 207.007 49.012 207.539 49.488C208.071 49.9547 208.743 50.188 209.555 50.188C210.012 50.188 210.432 50.1087 210.815 49.95C211.198 49.782 211.529 49.5393 211.809 49.222L212.369 49.866C212.042 50.258 211.632 50.5567 211.137 50.762C210.652 50.9673 210.115 51.07 209.527 51.07C208.771 51.07 208.099 50.9113 207.511 50.594C206.932 50.2673 206.48 49.8193 206.153 49.25C205.826 48.6807 205.663 48.0367 205.663 47.318C205.663 46.5993 205.817 45.9553 206.125 45.386C206.442 44.8167 206.872 44.3733 207.413 44.056C207.964 43.7387 208.58 43.58 209.261 43.58C209.942 43.58 210.554 43.7387 211.095 44.056C211.636 44.3733 212.061 44.8167 212.369 45.386C212.677 45.946 212.831 46.59 212.831 47.318L212.817 47.626ZM209.261 44.434C208.552 44.434 207.954 44.6627 207.469 45.12C206.993 45.568 206.722 46.156 206.657 46.884H211.879C211.814 46.156 211.538 45.568 211.053 45.12C210.577 44.6627 209.98 44.434 209.261 44.434ZM221.775 51.07C221.047 51.07 220.394 50.9113 219.815 50.594C219.246 50.2767 218.798 49.8333 218.471 49.264C218.145 48.6853 217.981 48.0367 217.981 47.318C217.981 46.5993 218.145 45.9553 218.471 45.386C218.798 44.8167 219.246 44.3733 219.815 44.056C220.394 43.7387 221.047 43.58 221.775 43.58C222.41 43.58 222.975 43.706 223.469 43.958C223.973 44.2007 224.37 44.56 224.659 45.036L223.917 45.54C223.675 45.176 223.367 44.9053 222.993 44.728C222.62 44.5413 222.214 44.448 221.775 44.448C221.243 44.448 220.763 44.5693 220.333 44.812C219.913 45.0453 219.582 45.3813 219.339 45.82C219.106 46.2587 218.989 46.758 218.989 47.318C218.989 47.8873 219.106 48.3913 219.339 48.83C219.582 49.2593 219.913 49.5953 220.333 49.838C220.763 50.0713 221.243 50.188 221.775 50.188C222.214 50.188 222.62 50.0993 222.993 49.922C223.367 49.7447 223.675 49.474 223.917 49.11L224.659 49.614C224.37 50.09 223.973 50.454 223.469 50.706C222.965 50.9487 222.401 51.07 221.775 51.07ZM234.042 43.58C234.733 43.58 235.358 43.7387 235.918 44.056C236.478 44.364 236.917 44.8027 237.234 45.372C237.551 45.9413 237.71 46.59 237.71 47.318C237.71 48.0553 237.551 48.7087 237.234 49.278C236.917 49.8473 236.478 50.2907 235.918 50.608C235.367 50.916 234.742 51.07 234.042 51.07C233.445 51.07 232.903 50.9487 232.418 50.706C231.942 50.454 231.55 50.09 231.242 49.614V53.716H230.248V43.636H231.2V45.092C231.499 44.6067 231.891 44.2333 232.376 43.972C232.871 43.7107 233.426 43.58 234.042 43.58ZM233.972 50.188C234.485 50.188 234.952 50.0713 235.372 49.838C235.792 49.5953 236.119 49.2547 236.352 48.816C236.595 48.3773 236.716 47.878 236.716 47.318C236.716 46.758 236.595 46.2633 236.352 45.834C236.119 45.3953 235.792 45.0547 235.372 44.812C234.952 44.5693 234.485 44.448 233.972 44.448C233.449 44.448 232.978 44.5693 232.558 44.812C232.147 45.0547 231.821 45.3953 231.578 45.834C231.345 46.2633 231.228 46.758 231.228 47.318C231.228 47.878 231.345 48.3773 231.578 48.816C231.821 49.2547 232.147 49.5953 232.558 49.838C232.978 50.0713 233.449 50.188 233.972 50.188ZM242.702 39.212H243.612L238.992 52.4H238.082L242.702 39.212ZM246.658 51.07C245.93 51.07 245.277 50.9113 244.698 50.594C244.129 50.2767 243.681 49.8333 243.354 49.264C243.027 48.6853 242.864 48.0367 242.864 47.318C242.864 46.5993 243.027 45.9553 243.354 45.386C243.681 44.8167 244.129 44.3733 244.698 44.056C245.277 43.7387 245.93 43.58 246.658 43.58C247.293 43.58 247.857 43.706 248.352 43.958C248.856 44.2007 249.253 44.56 249.542 45.036L248.8 45.54C248.557 45.176 248.249 44.9053 247.876 44.728C247.503 44.5413 247.097 44.448 246.658 44.448C246.126 44.448 245.645 44.5693 245.216 44.812C244.796 45.0453 244.465 45.3813 244.222 45.82C243.989 46.2587 243.872 46.758 243.872 47.318C243.872 47.8873 243.989 48.3913 244.222 48.83C244.465 49.2593 244.796 49.5953 245.216 49.838C245.645 50.0713 246.126 50.188 246.658 50.188C247.097 50.188 247.503 50.0993 247.876 49.922C248.249 49.7447 248.557 49.474 248.8 49.11L249.542 49.614C249.253 50.09 248.856 50.454 248.352 50.706C247.848 50.9487 247.283 51.07 246.658 51.07ZM255.131 43.636H256.125V49.488L261.039 43.636H261.921V51H260.927V45.148L256.027 51H255.131V43.636ZM270.789 43.636V51H269.795V44.518H266.267L266.169 46.338C266.095 47.8687 265.917 49.0447 265.637 49.866C265.357 50.6873 264.858 51.098 264.139 51.098C263.943 51.098 263.705 51.0607 263.425 50.986L263.495 50.132C263.663 50.1693 263.78 50.188 263.845 50.188C264.228 50.188 264.517 50.0107 264.713 49.656C264.909 49.3013 265.04 48.8627 265.105 48.34C265.171 47.8173 265.227 47.1267 265.273 46.268L265.399 43.636H270.789ZM273.615 43.636H274.609V49.488L279.523 43.636H280.405V51H279.411V45.148L274.511 51H273.615V43.636ZM289.592 47.724H287.912V51H286.918V43.636H287.912V46.87H289.606L292.196 43.636H293.274L290.376 47.206L293.484 51H292.308L289.592 47.724ZM297.45 43.58C298.411 43.58 299.149 43.8227 299.662 44.308C300.175 44.784 300.432 45.4933 300.432 46.436V51H299.48V49.852C299.256 50.2347 298.925 50.5333 298.486 50.748C298.057 50.9627 297.543 51.07 296.946 51.07C296.125 51.07 295.471 50.874 294.986 50.482C294.501 50.09 294.258 49.572 294.258 48.928C294.258 48.3027 294.482 47.7987 294.93 47.416C295.387 47.0333 296.111 46.842 297.1 46.842H299.438V46.394C299.438 45.7593 299.261 45.2787 298.906 44.952C298.551 44.616 298.033 44.448 297.352 44.448C296.885 44.448 296.437 44.5273 296.008 44.686C295.579 44.8353 295.21 45.0453 294.902 45.316L294.454 44.574C294.827 44.2567 295.275 44.014 295.798 43.846C296.321 43.6687 296.871 43.58 297.45 43.58ZM297.1 50.286C297.66 50.286 298.141 50.16 298.542 49.908C298.943 49.6467 299.242 49.2733 299.438 48.788V47.584H297.128C295.868 47.584 295.238 48.0227 295.238 48.9C295.238 49.3293 295.401 49.67 295.728 49.922C296.055 50.1647 296.512 50.286 297.1 50.286ZM306.872 43.58C307.563 43.58 308.188 43.7387 308.748 44.056C309.308 44.364 309.747 44.8027 310.064 45.372C310.381 45.9413 310.54 46.59 310.54 47.318C310.54 48.0553 310.381 48.7087 310.064 49.278C309.747 49.8473 309.308 50.2907 308.748 50.608C308.197 50.916 307.572 51.07 306.872 51.07C306.275 51.07 305.733 50.9487 305.248 50.706C304.772 50.454 304.38 50.09 304.072 49.614V53.716H303.078V43.636H304.03V45.092C304.329 44.6067 304.721 44.2333 305.206 43.972C305.701 43.7107 306.256 43.58 306.872 43.58ZM306.802 50.188C307.315 50.188 307.782 50.0713 308.202 49.838C308.622 49.5953 308.949 49.2547 309.182 48.816C309.425 48.3773 309.546 47.878 309.546 47.318C309.546 46.758 309.425 46.2633 309.182 45.834C308.949 45.3953 308.622 45.0547 308.202 44.812C307.782 44.5693 307.315 44.448 306.802 44.448C306.279 44.448 305.808 44.5693 305.388 44.812C304.977 45.0547 304.651 45.3953 304.408 45.834C304.175 46.2633 304.058 46.758 304.058 47.318C304.058 47.878 304.175 48.3773 304.408 48.816C304.651 49.2547 304.977 49.5953 305.388 49.838C305.808 50.0713 306.279 50.188 306.802 50.188ZM317.582 44.518H314.796V51H313.802V44.518H311.016V43.636H317.582V44.518ZM322.113 46.24C323.037 46.2493 323.742 46.4547 324.227 46.856C324.713 47.2573 324.955 47.836 324.955 48.592C324.955 49.376 324.694 49.978 324.171 50.398C323.649 50.818 322.902 51.0233 321.931 51.014L319.019 51V43.636H320.013V46.212L322.113 46.24ZM326.187 43.636H327.181V51H326.187V43.636ZM321.875 50.258C322.557 50.2673 323.07 50.132 323.415 49.852C323.77 49.5627 323.947 49.1427 323.947 48.592C323.947 48.0507 323.775 47.6493 323.429 47.388C323.084 47.1267 322.566 46.9913 321.875 46.982L320.013 46.954V50.23L321.875 50.258ZM336.35 47.724H334.67V51H333.676V43.636H334.67V46.87H336.364L338.954 43.636H340.032L337.134 47.206L340.242 51H339.066L336.35 47.724ZM344.589 51.07C343.879 51.07 343.24 50.9113 342.671 50.594C342.101 50.2673 341.653 49.8193 341.327 49.25C341 48.6807 340.837 48.0367 340.837 47.318C340.837 46.5993 341 45.9553 341.327 45.386C341.653 44.8167 342.101 44.3733 342.671 44.056C343.24 43.7387 343.879 43.58 344.589 43.58C345.298 43.58 345.937 43.7387 346.507 44.056C347.076 44.3733 347.519 44.8167 347.837 45.386C348.163 45.9553 348.327 46.5993 348.327 47.318C348.327 48.0367 348.163 48.6807 347.837 49.25C347.519 49.8193 347.076 50.2673 346.507 50.594C345.937 50.9113 345.298 51.07 344.589 51.07ZM344.589 50.188C345.111 50.188 345.578 50.0713 345.989 49.838C346.409 49.5953 346.735 49.2547 346.969 48.816C347.202 48.3773 347.319 47.878 347.319 47.318C347.319 46.758 347.202 46.2587 346.969 45.82C346.735 45.3813 346.409 45.0453 345.989 44.812C345.578 44.5693 345.111 44.448 344.589 44.448C344.066 44.448 343.595 44.5693 343.175 44.812C342.764 45.0453 342.437 45.3813 342.195 45.82C341.961 46.2587 341.845 46.758 341.845 47.318C341.845 47.878 341.961 48.3773 342.195 48.816C342.437 49.2547 342.764 49.5953 343.175 49.838C343.595 50.0713 344.066 50.188 344.589 50.188ZM358.683 43.636V51H357.773V45.176L354.791 50.104H354.343L351.361 45.162V51H350.451V43.636H351.459L354.581 48.942L357.759 43.636H358.683ZM368.12 43.636V51H367.126V44.518H362.506V51H361.512V43.636H368.12ZM373.479 43.58C374.441 43.58 375.178 43.8227 375.691 44.308C376.205 44.784 376.461 45.4933 376.461 46.436V51H375.509V49.852C375.285 50.2347 374.954 50.5333 374.515 50.748C374.086 50.9627 373.573 51.07 372.975 51.07C372.154 51.07 371.501 50.874 371.015 50.482C370.53 50.09 370.287 49.572 370.287 48.928C370.287 48.3027 370.511 47.7987 370.959 47.416C371.417 47.0333 372.14 46.842 373.129 46.842H375.467V46.394C375.467 45.7593 375.29 45.2787 374.935 44.952C374.581 44.616 374.063 44.448 373.381 44.448C372.915 44.448 372.467 44.5273 372.037 44.686C371.608 44.8353 371.239 45.0453 370.931 45.316L370.483 44.574C370.857 44.2567 371.305 44.014 371.827 43.846C372.35 43.6687 372.901 43.58 373.479 43.58ZM373.129 50.286C373.689 50.286 374.17 50.16 374.571 49.908C374.973 49.6467 375.271 49.2733 375.467 48.788V47.584H373.157C371.897 47.584 371.267 48.0227 371.267 48.9C371.267 49.3293 371.431 49.67 371.757 49.922C372.084 50.1647 372.541 50.286 373.129 50.286ZM379.107 43.636H380.101V46.898H384.735V43.636H385.729V51H384.735V47.752H380.101V51H379.107V43.636ZM388.555 43.636H389.549V49.488L394.463 43.636H395.345V51H394.351V45.148L389.451 51H388.555V43.636ZM398.193 43.636H399.187V49.488L404.101 43.636H404.983V51H403.989V45.148L399.089 51H398.193V43.636Z" fill="#222222"/>
<defs>
<filter id="filter0_d_9_36" x="0" y="0" width="565" height="122" filterUnits="userSpaceOnUse" color-interpolation-filters="sRGB">
<feFlood flood-opacity="0" result="BackgroundImageFix"/>
<feColorMatrix in="SourceAlpha" type="matrix" values="0 0 0 0 0 0 0 0 0 0 0 0 0 0 0 0 0 0 127 0" result="hardAlpha"/>
<feOffset dy="16"/>
<feGaussianBlur stdDeviation="8"/>
<feColorMatrix type="matrix" values="0 0 0 0 0 0 0 0 0 0 0 0 0 0 0 0 0 0 0.04 0"/>
<feBlend mode="normal" in2="BackgroundImageFix" result="effect1_dropShadow_9_36"/>
<feBlend mode="normal" in="SourceGraphic" in2="effect1_dropShadow_9_36" result="shape"/>
</filter>
<clipPath id="clip0_9_36">
<rect width="50" height="50" fill="white" transform="translate(36 20)"/>
</clipPath>
</defs>
</svg>
