<svg width="565" height="122" viewBox="0 0 565 122" fill="none" xmlns="http://www.w3.org/2000/svg">
<g filter="url(#filter0_d_9_37)">
<rect x="16" width="533" height="90" rx="20" fill="#F6FAFD"/>
</g>
<g clip-path="url(#clip0_9_37)">
<path d="M83.7272 54.5455H38.2728C37.0228 54.5455 36 53.5228 36 52.2728V27.2728C36 26.0228 37.0228 25 38.2728 25H83.7273C84.9773 25 86.0001 26.0228 86.0001 27.2728V52.2728C86 53.5228 84.9772 54.5455 83.7272 54.5455Z" fill="#0E9347"/>
<path d="M78.0447 45.4546C75.4311 45.4546 73.0447 46.7046 71.6811 48.75C70.5447 48.1819 69.2947 47.7273 67.8175 47.7273C63.8402 47.7273 60.5447 50.6819 59.9766 54.5455H83.7266C84.8629 54.5455 85.772 53.7501 85.9993 52.6137C85.5447 48.6364 82.1357 45.4546 78.0447 45.4546Z" fill="#0D8944"/>
<path d="M79.1825 52.2728H42.8188C42.8188 49.7728 40.7734 47.7274 38.2734 47.7274V31.8184C40.7734 31.8184 42.8188 29.7729 42.8188 27.2729H79.1825C79.1825 29.7729 81.2279 31.8184 83.7279 31.8184V47.7274C81.2279 47.7274 79.1825 49.7728 79.1825 52.2728Z" fill="#3BB54A"/>
<path d="M78.0426 45.4546C75.4289 45.4546 73.0426 46.7046 71.6789 48.75C70.5426 48.1819 69.2926 47.7273 67.8153 47.7273C64.6335 47.7273 61.9062 49.5455 60.6562 52.2728H79.179C79.179 49.7728 81.1108 47.8409 83.6108 47.7273C82.1335 46.3637 80.2018 45.4546 78.0426 45.4546Z" fill="#0E9347"/>
<path d="M60.9972 49.9999C66.0179 49.9999 70.0881 45.421 70.0881 39.7727C70.0881 34.1243 66.0179 29.5454 60.9972 29.5454C55.9764 29.5454 51.9062 34.1243 51.9062 39.7727C51.9062 45.421 55.9764 49.9999 60.9972 49.9999Z" fill="#0E9347"/>
<path d="M47.3626 42.0453C48.6178 42.0453 49.6354 41.0277 49.6354 39.7725C49.6354 38.5173 48.6178 37.4998 47.3626 37.4998C46.1074 37.4998 45.0898 38.5173 45.0898 39.7725C45.0898 41.0277 46.1074 42.0453 47.3626 42.0453Z" fill="#0E9347"/>
<path d="M74.636 42.0453C75.8912 42.0453 76.9088 41.0277 76.9088 39.7725C76.9088 38.5173 75.8912 37.4998 74.636 37.4998C73.3808 37.4998 72.3633 38.5173 72.3633 39.7725C72.3633 41.0277 73.3808 42.0453 74.636 42.0453Z" fill="#0E9347"/>
<path d="M62.1349 38.6365H59.8621C59.1803 38.6365 58.7258 38.1819 58.7258 37.5001C58.7258 36.8183 59.1804 36.3638 59.8621 36.3638H63.2712C63.953 36.3638 64.4075 35.9092 64.4075 35.2275C64.4075 34.5457 63.9529 34.0912 63.2712 34.0912H62.1349C62.1349 33.4093 61.6803 32.9548 60.9985 32.9548C60.3167 32.9548 59.8622 33.4094 59.8622 34.0912C57.9304 34.0912 56.4531 35.5684 56.4531 37.5002C56.4531 39.4321 57.9304 40.9093 59.8622 40.9093H62.135C62.8168 40.9093 63.2713 41.3639 63.2713 42.0457C63.2713 42.7275 62.8167 43.182 62.135 43.182H58.7259C58.044 43.182 57.5896 43.6366 57.5896 44.3183C57.5896 45.0001 58.0441 45.4546 58.7259 45.4546H59.8622C59.8622 46.1365 60.3168 46.591 60.9985 46.591C61.6804 46.591 62.1349 46.1364 62.1349 45.4546C64.0667 45.4546 65.5439 43.9774 65.5439 42.0456C65.5439 40.1137 64.0667 38.6365 62.1349 38.6365Z" fill="#89C763"/>
<path d="M65.5444 63.6365C69.9376 63.6365 73.499 60.0751 73.499 55.6819C73.499 51.2887 69.9376 47.7273 65.5444 47.7273C61.1512 47.7273 57.5898 51.2887 57.5898 55.6819C57.5898 60.0751 61.1512 63.6365 65.5444 63.6365Z" fill="#FFCA5D"/>
<path d="M75.771 61.3638C80.1642 61.3638 83.7256 57.8024 83.7256 53.4092C83.7256 49.016 80.1642 45.4546 75.771 45.4546C71.3778 45.4546 67.8164 49.016 67.8164 53.4092C67.8164 57.8024 71.3778 61.3638 75.771 61.3638Z" fill="#F6B545"/>
<path d="M75.771 45.4546C71.3392 45.4546 67.8164 48.9773 67.8164 53.4092C67.8164 57.841 71.3392 61.3638 75.771 61.3638C80.2028 61.3638 83.7256 57.841 83.7256 53.4092C83.7256 48.9773 80.2028 45.4546 75.771 45.4546ZM75.771 59.091C72.5892 59.091 70.0892 56.591 70.0892 53.4092C70.0892 50.2273 72.5892 47.7273 75.771 47.7273C78.9528 47.7273 81.4528 50.2273 81.4528 53.4092C81.4528 56.591 78.9528 59.091 75.771 59.091Z" fill="#FFCB5B"/>
<path d="M75.7734 61.2498C80.2053 61.3635 83.728 57.7271 83.728 53.4089H83.6144C83.0462 53.4089 82.5916 53.8635 82.478 54.4317C82.2508 56.0226 81.4553 57.4998 80.3189 58.5226C79.4099 59.4317 78.1599 59.9998 76.7962 60.2271C76.2279 60.2271 75.7734 60.6817 75.7734 61.2498Z" fill="#F6B545"/>
<path d="M75.771 45.5683C71.3392 45.4546 67.8164 49.091 67.8164 53.4092H67.9301C68.4982 53.4092 68.9528 52.9546 69.0664 52.3864C69.2937 50.7955 70.0892 49.3183 71.2255 48.2955C72.1346 47.3864 73.3846 46.8183 74.7482 46.5909C75.3164 46.591 75.771 46.1364 75.771 45.5683Z" fill="#FFE27A"/>
<path d="M70.8853 54.2045C70.8853 51.0227 73.3853 48.5227 76.5671 48.5227C77.9308 48.5227 79.1808 48.9773 80.2034 49.8864C79.0671 48.5227 77.5898 47.7273 75.7717 47.7273C72.5898 47.7273 70.0898 50.2273 70.0898 53.4091C70.0898 55.2273 70.8853 56.7045 72.1353 57.7273C71.3398 56.8182 70.8853 55.5682 70.8853 54.2045Z" fill="#F19920"/>
<path d="M79.1832 56.932C79.0696 56.932 78.956 56.932 78.8423 56.8183C78.6151 56.5911 78.6151 56.2501 78.8423 56.0229C79.5241 55.3411 79.8651 54.3183 79.8651 53.4092C79.8651 53.0683 80.0923 52.8411 80.4332 52.8411C80.7742 52.8411 81.0014 53.0683 81.0014 53.4092C81.0014 54.6592 80.5468 55.9092 79.7514 56.8183C79.5241 56.932 79.2968 56.932 79.1832 56.932Z" fill="#FFCB5B"/>
<path d="M75.773 56.8183C75.0912 56.8183 74.6367 56.3637 74.6367 55.682V51.1366C74.6367 50.4547 75.0913 50.0002 75.773 50.0002C76.4548 50.0002 76.9094 50.4548 76.9094 51.1366V55.682C76.9094 56.3637 76.4549 56.8183 75.773 56.8183Z" fill="#F19920"/>
<path d="M79.9791 60.1136C79.1837 57.2727 77.1382 55 74.5245 53.9773C74.0699 51.3636 72.3654 49.091 70.2063 47.7273C68.8427 49.2045 67.9336 51.1364 67.9336 53.2955C67.9336 57.7273 71.4563 61.25 75.8882 61.25C77.3655 61.3636 78.7291 60.9091 79.9791 60.1136Z" fill="#F19920"/>
<path d="M72.1354 57.7272C71.3399 56.7045 70.7717 55.4545 70.7717 54.0909C70.7717 52.5 71.4535 51.0228 72.5898 50C72.3626 49.6591 72.1353 49.4318 71.908 49.2046C70.7717 50.2273 70.0898 51.7046 70.0898 53.4092C70.0899 55.2272 70.8854 56.7045 72.1354 57.7272Z" fill="#E78825"/>
<path d="M74.6367 54.0908V55.6817C74.6367 56.3636 75.0913 56.8181 75.773 56.8181C76.4548 56.8181 76.9094 56.3635 76.9094 55.6817V55.4545C76.2276 54.8862 75.4322 54.4317 74.6367 54.0908Z" fill="#E78825"/>
<path d="M79.9755 60.1134C79.7482 59.318 79.5209 58.6362 79.0664 57.9543C78.1573 58.6362 77.021 59.0907 75.771 59.0907C72.5892 59.0907 70.0892 56.5907 70.0892 53.4088C70.0892 51.7042 70.771 50.227 71.9073 49.2042C71.3392 48.6361 70.771 48.1815 70.0892 47.8406C68.7255 49.3178 67.8164 51.2497 67.8164 53.4087C67.8164 57.8406 71.3392 61.3633 75.771 61.3633C77.3619 61.3634 78.7255 60.9089 79.9755 60.1134Z" fill="#F6B545"/>
<path d="M79.6371 59.0911C78.8417 59.6592 77.8189 60.0001 76.7962 60.2274C76.228 60.3411 75.7734 60.7956 75.7734 61.3637C77.3644 61.3637 78.728 60.9091 79.978 60.1137C79.8645 59.7728 79.7508 59.432 79.6371 59.0911Z" fill="#F19920"/>
<path d="M70.0892 47.8408C68.7255 49.3181 67.8164 51.2499 67.8164 53.409H67.9301C68.4982 53.409 68.9528 52.9544 69.0664 52.3862C69.2937 50.7953 70.0892 49.4316 71.1118 48.409C70.771 48.2953 70.4301 48.0681 70.0892 47.8408Z" fill="#FFCB5B"/>
<path d="M65.5444 63.6365C69.9376 63.6365 73.499 60.0751 73.499 55.6819C73.499 51.2887 69.9376 47.7273 65.5444 47.7273C61.1512 47.7273 57.5898 51.2887 57.5898 55.6819C57.5898 60.0751 61.1512 63.6365 65.5444 63.6365Z" fill="#F6B545"/>
<path d="M64.4102 61.3638C64.4102 62.1592 64.5238 62.841 64.7511 63.6365C64.9783 63.6365 65.3192 63.6365 65.5465 63.6365C69.9783 63.6365 73.5011 60.1138 73.5011 55.6819C73.5011 54.8865 73.3874 54.2047 73.1602 53.4092C72.9329 53.4092 72.592 53.4092 72.3647 53.4092C67.9329 53.4093 64.4102 56.932 64.4102 61.3638Z" fill="#F19920"/>
<path d="M65.5444 47.7273C61.1126 47.7273 57.5898 51.25 57.5898 55.6819C57.5898 60.1137 61.1126 63.6365 65.5444 63.6365C69.9763 63.6365 73.499 60.1136 73.499 55.6819C73.499 51.2501 69.9763 47.7273 65.5444 47.7273ZM65.5444 61.3636C62.3626 61.3636 59.8626 58.8636 59.8626 55.6818C59.8626 52.5 62.3626 50 65.5444 50C68.7263 50 71.2263 52.5 71.2263 55.6818C71.2263 58.8636 68.7263 61.3636 65.5444 61.3636Z" fill="#FFCB5B"/>
<path d="M65.5469 63.5227C69.9787 63.6364 73.5015 60 73.5015 55.6819H73.3878C72.8196 55.6819 72.365 56.1365 72.2515 56.7046C72.0242 58.2956 71.2287 59.7728 70.0924 60.7956C69.1833 61.7046 67.9333 62.2728 66.5696 62.5001C66.0015 62.5 65.5469 62.9545 65.5469 63.5227Z" fill="#F6B545"/>
<path d="M65.5444 47.841C61.1126 47.7273 57.5898 51.3637 57.5898 55.6819H57.7035C58.2717 55.6819 58.7263 55.2273 58.8398 54.6591C59.0671 53.0682 59.8626 51.591 60.9989 50.5682C61.908 49.6591 63.158 49.091 64.5217 48.8636C65.0899 48.8636 65.5444 48.4091 65.5444 47.841Z" fill="#FFE27A"/>
<path d="M60.6588 56.4772C60.6588 53.2954 63.1588 50.7954 66.3406 50.7954C67.7043 50.7954 68.9543 51.25 69.977 52.1591C68.8406 50.7954 67.3633 50 65.5451 50C62.3633 50 59.8633 52.5 59.8633 55.6818C59.8633 57.5 60.6587 58.9772 61.9087 60C61.1134 59.0909 60.6588 57.8409 60.6588 56.4772Z" fill="#F19920"/>
<path d="M68.9528 59.2044C68.8391 59.2044 68.7255 59.2044 68.6118 59.0908C68.3846 58.8635 68.3846 58.5226 68.6118 58.2954C69.2937 57.6135 69.6346 56.5908 69.6346 55.6817C69.6346 55.3408 69.8618 55.1135 70.2028 55.1135C70.5437 55.1135 70.7709 55.3408 70.7709 55.6817C70.7709 56.9317 70.3163 58.1817 69.5209 59.0908C69.2936 59.2044 69.0663 59.2044 68.9528 59.2044Z" fill="#FFCB5B"/>
<path d="M65.5465 59.091C64.8646 59.091 64.4102 58.6364 64.4102 57.9547V53.4093C64.4102 52.7274 64.8647 52.2729 65.5465 52.2729C66.2283 52.2729 66.6828 52.7275 66.6828 53.4093V57.9547C66.6829 58.6364 66.2283 59.091 65.5465 59.091Z" fill="#F19920"/>
<path d="M70.7737 53.5229C71.001 54.2047 71.2283 54.8865 71.2283 55.6819C71.2283 58.8638 68.7283 61.3638 65.5465 61.3638C65.2056 61.3638 64.7511 61.3638 64.4102 61.2501V61.3638C64.4102 62.1592 64.5238 62.841 64.7511 63.6365C64.9783 63.6365 65.3192 63.6365 65.5465 63.6365C69.9783 63.6365 73.5011 60.1138 73.5011 55.6819C73.5011 54.8865 73.3874 54.2047 73.1602 53.4092C72.9329 53.4092 72.592 53.4092 72.3647 53.4092C71.7964 53.4093 71.3419 53.4093 70.7737 53.5229Z" fill="#F6B545"/>
<path d="M71.228 70.4548C75.6212 70.4548 79.1826 66.8934 79.1826 62.5002C79.1826 58.107 75.6212 54.5457 71.228 54.5457C66.8348 54.5457 63.2734 58.107 63.2734 62.5002C63.2734 66.8934 66.8348 70.4548 71.228 70.4548Z" fill="#F6B545"/>
<path d="M71.228 54.5457C66.7962 54.5457 63.2734 58.0684 63.2734 62.5002C63.2734 66.9321 66.7962 70.4548 71.228 70.4548C75.6599 70.4548 79.1826 66.9321 79.1826 62.5002C79.1826 58.0684 75.6599 54.5457 71.228 54.5457ZM71.228 68.1821C68.0462 68.1821 65.5462 65.6821 65.5462 62.5002C65.5462 59.3184 68.0462 56.8184 71.228 56.8184C74.4099 56.8184 76.9099 59.3184 76.9099 62.5002C76.9099 65.6821 74.4099 68.1821 71.228 68.1821Z" fill="#FFCB5B"/>
<path d="M71.2266 70.3409C75.6584 70.4546 79.1812 66.8182 79.1812 62.5H79.0675C78.4993 62.5 78.0447 62.9546 77.9312 63.5228C77.7039 65.1137 76.9084 66.5909 75.7721 67.6137C74.863 68.5227 73.613 69.0909 72.2493 69.3183C71.6812 69.3182 71.2266 69.7726 71.2266 70.3409Z" fill="#F6B545"/>
<path d="M71.228 54.6591C66.7962 54.5454 63.2734 58.1818 63.2734 62.5H63.3871C63.9553 62.5 64.4099 62.0454 64.5234 61.4772C64.7507 59.8863 65.5462 58.4091 66.6825 57.3863C67.5916 56.4773 68.8416 55.9091 70.2053 55.6817C70.7735 55.6818 71.228 55.2273 71.228 54.6591Z" fill="#FFE27A"/>
<path d="M66.3424 63.2954C66.3424 60.1135 68.8424 57.6135 72.0242 57.6135C73.3879 57.6135 74.6379 58.0681 75.6605 58.9772C74.5242 57.6135 73.0469 56.8181 71.2287 56.8181C68.0469 56.8181 65.5469 59.3181 65.5469 62.5C65.5469 64.3181 66.3423 65.7954 67.5923 66.8181C66.7969 65.909 66.3424 64.659 66.3424 63.2954Z" fill="#F19920"/>
<path d="M74.6364 66.0226C74.5227 66.0226 74.4091 66.0226 74.2954 65.9089C74.0682 65.6816 74.0682 65.3407 74.2954 65.1135C74.9773 64.4316 75.3182 63.4089 75.3182 62.4998C75.3182 62.1589 75.5454 61.9316 75.8864 61.9316C76.2273 61.9316 76.4545 62.1589 76.4545 62.4998C76.4545 63.7498 75.9999 64.9998 75.2045 65.9089C74.9773 66.0226 74.75 66.0226 74.6364 66.0226Z" fill="#FFCB5B"/>
<path d="M71.2262 65.9092C70.5443 65.9092 70.0898 65.4546 70.0898 64.7729V60.2274C70.0898 59.5456 70.5444 59.0911 71.2262 59.0911C71.908 59.0911 72.3625 59.5457 72.3625 60.2274V64.7728C72.3626 65.4546 71.908 65.9092 71.2262 65.9092Z" fill="#F19920"/>
</g>
<path d="M120.186 41.116C121.101 41.116 121.927 41.3307 122.664 41.76C123.411 42.1893 123.994 42.7867 124.414 43.552C124.843 44.308 125.058 45.1573 125.058 46.1C125.058 47.0427 124.843 47.8967 124.414 48.662C123.994 49.418 123.411 50.0107 122.664 50.44C121.927 50.8693 121.101 51.084 120.186 51.084C119.421 51.084 118.721 50.9627 118.086 50.72C117.451 50.4773 116.919 50.118 116.49 49.642L117.134 48.984C117.909 49.768 118.912 50.16 120.144 50.16C120.835 50.16 121.465 50.0013 122.034 49.684C122.603 49.3573 123.061 48.914 123.406 48.354C123.761 47.7847 123.961 47.1453 124.008 46.436H118.954V45.582H123.994C123.919 44.9007 123.705 44.294 123.35 43.762C123.005 43.2207 122.552 42.8007 121.992 42.502C121.432 42.194 120.816 42.04 120.144 42.04C118.912 42.04 117.909 42.432 117.134 43.216L116.49 42.558C116.919 42.082 117.451 41.7227 118.086 41.48C118.721 41.2373 119.421 41.116 120.186 41.116ZM129.973 47.724H128.293V51H127.299V43.636H128.293V46.87H129.987L132.577 43.636H133.655L130.757 47.206L133.865 51H132.689L129.973 47.724ZM138.212 51.07C137.502 51.07 136.863 50.9113 136.294 50.594C135.724 50.2673 135.276 49.8193 134.95 49.25C134.623 48.6807 134.46 48.0367 134.46 47.318C134.46 46.5993 134.623 45.9553 134.95 45.386C135.276 44.8167 135.724 44.3733 136.294 44.056C136.863 43.7387 137.502 43.58 138.212 43.58C138.921 43.58 139.56 43.7387 140.13 44.056C140.699 44.3733 141.142 44.8167 141.46 45.386C141.786 45.9553 141.95 46.5993 141.95 47.318C141.95 48.0367 141.786 48.6807 141.46 49.25C141.142 49.8193 140.699 50.2673 140.13 50.594C139.56 50.9113 138.921 51.07 138.212 51.07ZM138.212 50.188C138.734 50.188 139.201 50.0713 139.612 49.838C140.032 49.5953 140.358 49.2547 140.592 48.816C140.825 48.3773 140.942 47.878 140.942 47.318C140.942 46.758 140.825 46.2587 140.592 45.82C140.358 45.3813 140.032 45.0453 139.612 44.812C139.201 44.5693 138.734 44.448 138.212 44.448C137.689 44.448 137.218 44.5693 136.798 44.812C136.387 45.0453 136.06 45.3813 135.818 45.82C135.584 46.2587 135.468 46.758 135.468 47.318C135.468 47.878 135.584 48.3773 135.818 48.816C136.06 49.2547 136.387 49.5953 136.798 49.838C137.218 50.0713 137.689 50.188 138.212 50.188ZM144.074 43.636H145.068V46.898H149.702V43.636H150.696V51H149.702V47.752H145.068V51H144.074V43.636ZM156.559 51.07C155.85 51.07 155.211 50.9113 154.641 50.594C154.072 50.2673 153.624 49.8193 153.297 49.25C152.971 48.6807 152.807 48.0367 152.807 47.318C152.807 46.5993 152.971 45.9553 153.297 45.386C153.624 44.8167 154.072 44.3733 154.641 44.056C155.211 43.7387 155.85 43.58 156.559 43.58C157.269 43.58 157.908 43.7387 158.477 44.056C159.047 44.3733 159.49 44.8167 159.807 45.386C160.134 45.9553 160.297 46.5993 160.297 47.318C160.297 48.0367 160.134 48.6807 159.807 49.25C159.49 49.8193 159.047 50.2673 158.477 50.594C157.908 50.9113 157.269 51.07 156.559 51.07ZM156.559 50.188C157.082 50.188 157.549 50.0713 157.959 49.838C158.379 49.5953 158.706 49.2547 158.939 48.816C159.173 48.3773 159.289 47.878 159.289 47.318C159.289 46.758 159.173 46.2587 158.939 45.82C158.706 45.3813 158.379 45.0453 157.959 44.812C157.549 44.5693 157.082 44.448 156.559 44.448C156.037 44.448 155.565 44.5693 155.145 44.812C154.735 45.0453 154.408 45.3813 154.165 45.82C153.932 46.2587 153.815 46.758 153.815 47.318C153.815 47.878 153.932 48.3773 154.165 48.816C154.408 49.2547 154.735 49.5953 155.145 49.838C155.565 50.0713 156.037 50.188 156.559 50.188ZM170.654 43.636V51H169.744V45.176L166.762 50.104H166.314L163.332 45.162V51H162.422V43.636H163.43L166.552 48.942L169.73 43.636H170.654ZM176.646 46.24C177.57 46.2493 178.27 46.4547 178.746 46.856C179.232 47.2573 179.474 47.836 179.474 48.592C179.474 49.376 179.213 49.978 178.69 50.398C178.177 50.818 177.43 51.0233 176.45 51.014L173.482 51V43.636H174.476V46.212L176.646 46.24ZM176.394 50.258C177.076 50.2673 177.589 50.132 177.934 49.852C178.289 49.5627 178.466 49.1427 178.466 48.592C178.466 48.0507 178.294 47.6493 177.948 47.388C177.603 47.1267 177.085 46.9913 176.394 46.982L174.476 46.954V50.23L176.394 50.258ZM185.813 44.518H183.027V51H182.033V44.518H179.247V43.636H185.813V44.518ZM193.348 47.626H187.188C187.244 48.3913 187.538 49.012 188.07 49.488C188.602 49.9547 189.274 50.188 190.086 50.188C190.543 50.188 190.963 50.1087 191.346 49.95C191.729 49.782 192.06 49.5393 192.34 49.222L192.9 49.866C192.573 50.258 192.163 50.5567 191.668 50.762C191.183 50.9673 190.646 51.07 190.058 51.07C189.302 51.07 188.63 50.9113 188.042 50.594C187.463 50.2673 187.011 49.8193 186.684 49.25C186.357 48.6807 186.194 48.0367 186.194 47.318C186.194 46.5993 186.348 45.9553 186.656 45.386C186.973 44.8167 187.403 44.3733 187.944 44.056C188.495 43.7387 189.111 43.58 189.792 43.58C190.473 43.58 191.085 43.7387 191.626 44.056C192.167 44.3733 192.592 44.8167 192.9 45.386C193.208 45.946 193.362 46.59 193.362 47.318L193.348 47.626ZM189.792 44.434C189.083 44.434 188.485 44.6627 188 45.12C187.524 45.568 187.253 46.156 187.188 46.884H192.41C192.345 46.156 192.069 45.568 191.584 45.12C191.108 44.6627 190.511 44.434 189.792 44.434ZM206.409 50.132V52.778H205.471V51H198.877V52.778H197.939V50.132H198.359C198.853 50.104 199.189 49.74 199.367 49.04C199.544 48.34 199.665 47.36 199.731 46.1L199.829 43.636H205.261V50.132H206.409ZM200.641 46.156C200.594 47.2013 200.505 48.0647 200.375 48.746C200.244 49.418 200.011 49.88 199.675 50.132H204.267V44.518H200.725L200.641 46.156ZM211.384 51.07C210.674 51.07 210.035 50.9113 209.466 50.594C208.896 50.2673 208.448 49.8193 208.122 49.25C207.795 48.6807 207.632 48.0367 207.632 47.318C207.632 46.5993 207.795 45.9553 208.122 45.386C208.448 44.8167 208.896 44.3733 209.466 44.056C210.035 43.7387 210.674 43.58 211.384 43.58C212.093 43.58 212.732 43.7387 213.302 44.056C213.871 44.3733 214.314 44.8167 214.632 45.386C214.958 45.9553 215.122 46.5993 215.122 47.318C215.122 48.0367 214.958 48.6807 214.632 49.25C214.314 49.8193 213.871 50.2673 213.302 50.594C212.732 50.9113 212.093 51.07 211.384 51.07ZM211.384 50.188C211.906 50.188 212.373 50.0713 212.784 49.838C213.204 49.5953 213.53 49.2547 213.764 48.816C213.997 48.3773 214.114 47.878 214.114 47.318C214.114 46.758 213.997 46.2587 213.764 45.82C213.53 45.3813 213.204 45.0453 212.784 44.812C212.373 44.5693 211.906 44.448 211.384 44.448C210.861 44.448 210.39 44.5693 209.97 44.812C209.559 45.0453 209.232 45.3813 208.99 45.82C208.756 46.2587 208.64 46.758 208.64 47.318C208.64 47.878 208.756 48.3773 208.99 48.816C209.232 49.2547 209.559 49.5953 209.97 49.838C210.39 50.0713 210.861 50.188 211.384 50.188ZM225.838 45.862C226.454 46.0673 226.925 46.3753 227.252 46.786C227.588 47.1967 227.756 47.6913 227.756 48.27C227.756 48.8393 227.602 49.3387 227.294 49.768C226.986 50.188 226.543 50.5147 225.964 50.748C225.395 50.972 224.723 51.084 223.948 51.084C222.772 51.084 221.848 50.832 221.176 50.328C220.504 49.824 220.168 49.138 220.168 48.27C220.168 47.682 220.327 47.1873 220.644 46.786C220.971 46.3753 221.442 46.0673 222.058 45.862C221.554 45.666 221.171 45.386 220.91 45.022C220.649 44.6487 220.518 44.21 220.518 43.706C220.518 42.9127 220.826 42.2827 221.442 41.816C222.067 41.3493 222.903 41.116 223.948 41.116C224.639 41.116 225.241 41.2233 225.754 41.438C226.277 41.6433 226.683 41.942 226.972 42.334C227.261 42.726 227.406 43.1833 227.406 43.706C227.406 44.21 227.271 44.6487 227 45.022C226.729 45.386 226.342 45.666 225.838 45.862ZM221.526 43.734C221.526 44.2753 221.741 44.7047 222.17 45.022C222.599 45.3393 223.192 45.498 223.948 45.498C224.704 45.498 225.297 45.3393 225.726 45.022C226.165 44.7047 226.384 44.28 226.384 43.748C226.384 43.1973 226.16 42.7633 225.712 42.446C225.273 42.1287 224.685 41.97 223.948 41.97C223.201 41.97 222.609 42.1287 222.17 42.446C221.741 42.7633 221.526 43.1927 221.526 43.734ZM223.948 50.23C224.816 50.23 225.493 50.0527 225.978 49.698C226.473 49.3433 226.72 48.8627 226.72 48.256C226.72 47.6493 226.473 47.1733 225.978 46.828C225.493 46.4733 224.816 46.296 223.948 46.296C223.089 46.296 222.413 46.4733 221.918 46.828C221.433 47.1733 221.19 47.6493 221.19 48.256C221.19 48.872 221.433 49.3573 221.918 49.712C222.403 50.0573 223.08 50.23 223.948 50.23ZM236.068 41.2V41.914L231.966 51H230.874L234.906 42.096H229.866V43.93H228.872V41.2H236.068ZM239.495 46.45C238.833 46.45 238.296 46.2073 237.885 45.722C237.484 45.2273 237.283 44.5833 237.283 43.79C237.283 42.9967 237.484 42.3573 237.885 41.872C238.296 41.3773 238.833 41.13 239.495 41.13C240.149 41.13 240.681 41.3727 241.091 41.858C241.502 42.3433 241.707 42.9873 241.707 43.79C241.707 44.5927 241.502 45.2367 241.091 45.722C240.681 46.2073 240.149 46.45 239.495 46.45ZM245.431 41.2H246.257L239.565 51H238.739L245.431 41.2ZM239.495 45.82C239.953 45.82 240.317 45.6427 240.587 45.288C240.867 44.924 241.007 44.4247 241.007 43.79C241.007 43.1553 240.867 42.6607 240.587 42.306C240.317 41.942 239.953 41.76 239.495 41.76C239.029 41.76 238.66 41.942 238.389 42.306C238.119 42.67 237.983 43.1647 237.983 43.79C237.983 44.4153 238.119 44.91 238.389 45.274C238.66 45.638 239.029 45.82 239.495 45.82ZM245.501 51.07C244.848 51.07 244.316 50.8273 243.905 50.342C243.495 49.8473 243.289 49.2033 243.289 48.41C243.289 47.6167 243.495 46.9773 243.905 46.492C244.316 45.9973 244.848 45.75 245.501 45.75C246.164 45.75 246.696 45.9973 247.097 46.492C247.508 46.9773 247.713 47.6167 247.713 48.41C247.713 49.2033 247.508 49.8473 247.097 50.342C246.696 50.8273 246.164 51.07 245.501 51.07ZM245.501 50.44C245.968 50.44 246.337 50.258 246.607 49.894C246.878 49.53 247.013 49.0353 247.013 48.41C247.013 47.7847 246.878 47.29 246.607 46.926C246.337 46.562 245.968 46.38 245.501 46.38C245.044 46.38 244.675 46.562 244.395 46.926C244.125 47.2807 243.989 47.7753 243.989 48.41C243.989 49.0447 244.125 49.544 244.395 49.908C244.675 50.2627 245.044 50.44 245.501 50.44ZM256.951 43.818C257.632 43.818 258.239 43.972 258.771 44.28C259.312 44.5787 259.732 45.0033 260.031 45.554C260.329 46.0953 260.479 46.716 260.479 47.416C260.479 48.1347 260.32 48.774 260.003 49.334C259.695 49.8847 259.261 50.314 258.701 50.622C258.141 50.93 257.497 51.084 256.769 51.084C255.546 51.084 254.599 50.6547 253.927 49.796C253.255 48.9373 252.919 47.752 252.919 46.24C252.919 44.6627 253.217 43.454 253.815 42.614C254.421 41.774 255.364 41.2047 256.643 40.906L259.947 40.15L260.115 41.06L257.007 41.774C255.952 42.0073 255.177 42.4227 254.683 43.02C254.188 43.608 253.917 44.4807 253.871 45.638C254.169 45.0687 254.585 44.6253 255.117 44.308C255.649 43.9813 256.26 43.818 256.951 43.818ZM256.797 50.258C257.31 50.258 257.767 50.1413 258.169 49.908C258.579 49.6653 258.897 49.3293 259.121 48.9C259.354 48.4707 259.471 47.9853 259.471 47.444C259.471 46.9027 259.359 46.4267 259.135 46.016C258.911 45.6053 258.593 45.288 258.183 45.064C257.781 44.8307 257.319 44.714 256.797 44.714C256.274 44.714 255.807 44.8307 255.397 45.064C254.995 45.288 254.678 45.6053 254.445 46.016C254.221 46.4267 254.109 46.9027 254.109 47.444C254.109 47.9853 254.221 48.4707 254.445 48.9C254.678 49.3293 255 49.6653 255.411 49.908C255.821 50.1413 256.283 50.258 256.797 50.258ZM268.937 43.58C269.628 43.58 270.249 43.7387 270.799 44.056C271.359 44.3733 271.798 44.8167 272.115 45.386C272.433 45.9553 272.591 46.5993 272.591 47.318C272.591 48.0367 272.433 48.6807 272.115 49.25C271.798 49.8193 271.359 50.2673 270.799 50.594C270.249 50.9113 269.628 51.07 268.937 51.07C268.284 51.07 267.691 50.93 267.159 50.65C266.627 50.3607 266.193 49.964 265.857 49.46C265.531 48.956 265.339 48.3773 265.283 47.724H263.603V51H262.609V43.636H263.603V46.814H265.297C265.372 46.1793 265.573 45.6193 265.899 45.134C266.235 44.6393 266.665 44.2567 267.187 43.986C267.71 43.7153 268.293 43.58 268.937 43.58ZM268.937 50.202C269.441 50.202 269.894 50.0807 270.295 49.838C270.706 49.5953 271.028 49.2547 271.261 48.816C271.495 48.3773 271.611 47.878 271.611 47.318C271.611 46.758 271.495 46.2587 271.261 45.82C271.028 45.3813 270.706 45.0453 270.295 44.812C269.894 44.5693 269.441 44.448 268.937 44.448C268.433 44.448 267.976 44.5693 267.565 44.812C267.164 45.0453 266.847 45.3813 266.613 45.82C266.38 46.2587 266.263 46.758 266.263 47.318C266.263 47.878 266.38 48.3773 266.613 48.816C266.847 49.2547 267.164 49.5953 267.565 49.838C267.976 50.0807 268.433 50.202 268.937 50.202ZM281.864 50.132V52.778H280.926V51H274.332V52.778H273.394V50.132H273.814C274.308 50.104 274.644 49.74 274.822 49.04C274.999 48.34 275.12 47.36 275.186 46.1L275.284 43.636H280.716V50.132H281.864ZM276.096 46.156C276.049 47.2013 275.96 48.0647 275.83 48.746C275.699 49.418 275.466 49.88 275.13 50.132H279.722V44.518H276.18L276.096 46.156ZM290.255 47.724H288.659V51H287.665V47.724H286.069L283.815 51H282.625L285.271 47.206L282.835 43.636H283.913L286.069 46.87H287.665V43.636H288.659V46.87H290.255L292.425 43.636H293.503L291.067 47.22L293.713 51H292.523L290.255 47.724ZM301.547 47.626H295.387C295.443 48.3913 295.737 49.012 296.269 49.488C296.801 49.9547 297.473 50.188 298.285 50.188C298.743 50.188 299.163 50.1087 299.545 49.95C299.928 49.782 300.259 49.5393 300.539 49.222L301.099 49.866C300.773 50.258 300.362 50.5567 299.867 50.762C299.382 50.9673 298.845 51.07 298.257 51.07C297.501 51.07 296.829 50.9113 296.241 50.594C295.663 50.2673 295.21 49.8193 294.883 49.25C294.557 48.6807 294.393 48.0367 294.393 47.318C294.393 46.5993 294.547 45.9553 294.855 45.386C295.173 44.8167 295.602 44.3733 296.143 44.056C296.694 43.7387 297.31 43.58 297.991 43.58C298.673 43.58 299.284 43.7387 299.825 44.056C300.367 44.3733 300.791 44.8167 301.099 45.386C301.407 45.946 301.561 46.59 301.561 47.318L301.547 47.626ZM297.991 44.434C297.282 44.434 296.685 44.6627 296.199 45.12C295.723 45.568 295.453 46.156 295.387 46.884H300.609C300.544 46.156 300.269 45.568 299.783 45.12C299.307 44.6627 298.71 44.434 297.991 44.434ZM308.614 44.518H305.828V51H304.834V44.518H302.048V43.636H308.614V44.518ZM312.585 43.58C313.546 43.58 314.283 43.8227 314.797 44.308C315.31 44.784 315.567 45.4933 315.567 46.436V51H314.615V49.852C314.391 50.2347 314.059 50.5333 313.621 50.748C313.191 50.9627 312.678 51.07 312.081 51.07C311.259 51.07 310.606 50.874 310.121 50.482C309.635 50.09 309.393 49.572 309.393 48.928C309.393 48.3027 309.617 47.7987 310.065 47.416C310.522 47.0333 311.245 46.842 312.235 46.842H314.573V46.394C314.573 45.7593 314.395 45.2787 314.041 44.952C313.686 44.616 313.168 44.448 312.487 44.448C312.02 44.448 311.572 44.5273 311.143 44.686C310.713 44.8353 310.345 45.0453 310.037 45.316L309.589 44.574C309.962 44.2567 310.41 44.014 310.933 43.846C311.455 43.6687 312.006 43.58 312.585 43.58ZM312.235 50.286C312.795 50.286 313.275 50.16 313.677 49.908C314.078 49.6467 314.377 49.2733 314.573 48.788V47.584H312.263C311.003 47.584 310.373 48.0227 310.373 48.9C310.373 49.3293 310.536 49.67 310.863 49.922C311.189 50.1647 311.647 50.286 312.235 50.286ZM321.877 43.636H322.871V46.898H327.505V43.636H328.499V51H327.505V47.752H322.871V51H321.877V43.636ZM333.858 43.58C334.819 43.58 335.557 43.8227 336.07 44.308C336.583 44.784 336.84 45.4933 336.84 46.436V51H335.888V49.852C335.664 50.2347 335.333 50.5333 334.894 50.748C334.465 50.9627 333.951 51.07 333.354 51.07C332.533 51.07 331.879 50.874 331.394 50.482C330.909 50.09 330.666 49.572 330.666 48.928C330.666 48.3027 330.89 47.7987 331.338 47.416C331.795 47.0333 332.519 46.842 333.508 46.842H335.846V46.394C335.846 45.7593 335.669 45.2787 335.314 44.952C334.959 44.616 334.441 44.448 333.76 44.448C333.293 44.448 332.845 44.5273 332.416 44.686C331.987 44.8353 331.618 45.0453 331.31 45.316L330.862 44.574C331.235 44.2567 331.683 44.014 332.206 43.846C332.729 43.6687 333.279 43.58 333.858 43.58ZM333.508 50.286C334.068 50.286 334.549 50.16 334.95 49.908C335.351 49.6467 335.65 49.2733 335.846 48.788V47.584H333.536C332.276 47.584 331.646 48.0227 331.646 48.9C331.646 49.3293 331.809 49.67 332.136 49.922C332.463 50.1647 332.92 50.286 333.508 50.286ZM352.04 47.304C352.04 48.452 351.662 49.3527 350.906 50.006C350.15 50.6593 349.082 51.014 347.7 51.07V53.716H346.734V51.084C345.362 51.028 344.298 50.6733 343.542 50.02C342.796 49.3573 342.422 48.452 342.422 47.304C342.422 46.1653 342.796 45.274 343.542 44.63C344.298 43.986 345.362 43.636 346.734 43.58V40.612H347.7V43.58C349.082 43.6453 350.15 44 350.906 44.644C351.662 45.288 352.04 46.1747 352.04 47.304ZM343.402 47.304C343.402 48.1813 343.682 48.8673 344.242 49.362C344.812 49.8567 345.642 50.1367 346.734 50.202V44.462C345.652 44.518 344.826 44.7933 344.256 45.288C343.687 45.7733 343.402 46.4453 343.402 47.304ZM347.7 50.202C348.792 50.146 349.623 49.8707 350.192 49.376C350.771 48.8813 351.06 48.1907 351.06 47.304C351.06 46.436 350.771 45.7593 350.192 45.274C349.623 44.7887 348.792 44.518 347.7 44.462V50.202ZM357.937 43.58C358.627 43.58 359.253 43.7387 359.813 44.056C360.373 44.364 360.811 44.8027 361.129 45.372C361.446 45.9413 361.605 46.59 361.605 47.318C361.605 48.0553 361.446 48.7087 361.129 49.278C360.811 49.8473 360.373 50.2907 359.813 50.608C359.262 50.916 358.637 51.07 357.937 51.07C357.339 51.07 356.798 50.9487 356.313 50.706C355.837 50.454 355.445 50.09 355.137 49.614V53.716H354.143V43.636H355.095V45.092C355.393 44.6067 355.785 44.2333 356.271 43.972C356.765 43.7107 357.321 43.58 357.937 43.58ZM357.867 50.188C358.38 50.188 358.847 50.0713 359.267 49.838C359.687 49.5953 360.013 49.2547 360.247 48.816C360.489 48.3773 360.611 47.878 360.611 47.318C360.611 46.758 360.489 46.2633 360.247 45.834C360.013 45.3953 359.687 45.0547 359.267 44.812C358.847 44.5693 358.38 44.448 357.867 44.448C357.344 44.448 356.873 44.5693 356.453 44.812C356.042 45.0547 355.715 45.3953 355.473 45.834C355.239 46.2633 355.123 46.758 355.123 47.318C355.123 47.878 355.239 48.3773 355.473 48.816C355.715 49.2547 356.042 49.5953 356.453 49.838C356.873 50.0713 357.344 50.188 357.867 50.188ZM363.74 43.636H364.734V49.488L369.648 43.636H370.53V51H369.536V45.148L364.636 51H363.74V43.636ZM379.399 43.636V51H378.405V44.518H374.877L374.779 46.338C374.704 47.8687 374.527 49.0447 374.247 49.866C373.967 50.6873 373.468 51.098 372.749 51.098C372.553 51.098 372.315 51.0607 372.035 50.986L372.105 50.132C372.273 50.1693 372.39 50.188 372.455 50.188C372.838 50.188 373.127 50.0107 373.323 49.656C373.519 49.3013 373.65 48.8627 373.715 48.34C373.78 47.8173 373.836 47.1267 373.883 46.268L374.009 43.636H379.399ZM384.759 43.58C385.72 43.58 386.457 43.8227 386.971 44.308C387.484 44.784 387.741 45.4933 387.741 46.436V51H386.789V49.852C386.565 50.2347 386.233 50.5333 385.795 50.748C385.365 50.9627 384.852 51.07 384.255 51.07C383.433 51.07 382.78 50.874 382.295 50.482C381.809 50.09 381.567 49.572 381.567 48.928C381.567 48.3027 381.791 47.7987 382.239 47.416C382.696 47.0333 383.419 46.842 384.409 46.842H386.747V46.394C386.747 45.7593 386.569 45.2787 386.215 44.952C385.86 44.616 385.342 44.448 384.661 44.448C384.194 44.448 383.746 44.5273 383.317 44.686C382.887 44.8353 382.519 45.0453 382.211 45.316L381.763 44.574C382.136 44.2567 382.584 44.014 383.107 43.846C383.629 43.6687 384.18 43.58 384.759 43.58ZM384.409 50.286C384.969 50.286 385.449 50.16 385.851 49.908C386.252 49.6467 386.551 49.2733 386.747 48.788V47.584H384.437C383.177 47.584 382.547 48.0227 382.547 48.9C382.547 49.3293 382.71 49.67 383.037 49.922C383.363 50.1647 383.821 50.286 384.409 50.286ZM390.387 43.636H391.381V46.898H396.015V43.636H397.009V51H396.015V47.752H391.381V51H390.387V43.636ZM402.914 51.07C402.186 51.07 401.533 50.9113 400.954 50.594C400.385 50.2767 399.937 49.8333 399.61 49.264C399.283 48.6853 399.12 48.0367 399.12 47.318C399.12 46.5993 399.283 45.9553 399.61 45.386C399.937 44.8167 400.385 44.3733 400.954 44.056C401.533 43.7387 402.186 43.58 402.914 43.58C403.549 43.58 404.113 43.706 404.608 43.958C405.112 44.2007 405.509 44.56 405.798 45.036L405.056 45.54C404.813 45.176 404.505 44.9053 404.132 44.728C403.759 44.5413 403.353 44.448 402.914 44.448C402.382 44.448 401.901 44.5693 401.472 44.812C401.052 45.0453 400.721 45.3813 400.478 45.82C400.245 46.2587 400.128 46.758 400.128 47.318C400.128 47.8873 400.245 48.3913 400.478 48.83C400.721 49.2593 401.052 49.5953 401.472 49.838C401.901 50.0713 402.382 50.188 402.914 50.188C403.353 50.188 403.759 50.0993 404.132 49.922C404.505 49.7447 404.813 49.474 405.056 49.11L405.798 49.614C405.509 50.09 405.112 50.454 404.608 50.706C404.104 50.9487 403.539 51.07 402.914 51.07ZM414.04 47.626H407.88C407.936 48.3913 408.23 49.012 408.762 49.488C409.294 49.9547 409.966 50.188 410.778 50.188C411.235 50.188 411.655 50.1087 412.038 49.95C412.42 49.782 412.752 49.5393 413.032 49.222L413.592 49.866C413.265 50.258 412.854 50.5567 412.36 50.762C411.874 50.9673 411.338 51.07 410.75 51.07C409.994 51.07 409.322 50.9113 408.734 50.594C408.155 50.2673 407.702 49.8193 407.376 49.25C407.049 48.6807 406.886 48.0367 406.886 47.318C406.886 46.5993 407.04 45.9553 407.348 45.386C407.665 44.8167 408.094 44.3733 408.636 44.056C409.186 43.7387 409.802 43.58 410.484 43.58C411.165 43.58 411.776 43.7387 412.318 44.056C412.859 44.3733 413.284 44.8167 413.592 45.386C413.9 45.946 414.054 46.59 414.054 47.318L414.04 47.626ZM410.484 44.434C409.774 44.434 409.177 44.6627 408.692 45.12C408.216 45.568 407.945 46.156 407.88 46.884H413.102C413.036 46.156 412.761 45.568 412.276 45.12C411.8 44.6627 411.202 44.434 410.484 44.434Z" fill="#222222"/>
<defs>
<filter id="filter0_d_9_37" x="0" y="0" width="565" height="122" filterUnits="userSpaceOnUse" color-interpolation-filters="sRGB">
<feFlood flood-opacity="0" result="BackgroundImageFix"/>
<feColorMatrix in="SourceAlpha" type="matrix" values="0 0 0 0 0 0 0 0 0 0 0 0 0 0 0 0 0 0 127 0" result="hardAlpha"/>
<feOffset dy="16"/>
<feGaussianBlur stdDeviation="8"/>
<feColorMatrix type="matrix" values="0 0 0 0 0 0 0 0 0 0 0 0 0 0 0 0 0 0 0.04 0"/>
<feBlend mode="normal" in2="BackgroundImageFix" result="effect1_dropShadow_9_37"/>
<feBlend mode="normal" in="SourceGraphic" in2="effect1_dropShadow_9_37" result="shape"/>
</filter>
<clipPath id="clip0_9_37">
<rect width="50" height="50" fill="white" transform="translate(36 20)"/>
</clipPath>
</defs>
</svg>
