<svg width="565" height="122" viewBox="0 0 565 122" fill="none" xmlns="http://www.w3.org/2000/svg">
<g filter="url(#filter0_d_9_60)">
<rect x="16" width="533" height="90" rx="20" fill="#F6FAFD"/>
</g>
<g clip-path="url(#clip0_9_60)">
<path d="M61 70C74.8071 70 86 58.8071 86 45C86 31.1929 74.8071 20 61 20C47.1929 20 36 31.1929 36 45C36 58.8071 47.1929 70 61 70Z" fill="#EAB14D"/>
<path d="M60.9982 20C60.552 20 60.1085 20.0122 59.668 20.0353C72.8566 20.7269 83.3378 31.6392 83.3378 45C83.3378 58.3608 72.8566 69.2731 59.668 69.9647C60.1085 69.9878 60.552 70 60.9982 70C74.8054 70 85.9983 58.8071 85.9983 45C85.9983 31.1929 74.8054 20 60.9982 20Z" fill="#E49542"/>
<path d="M61.0007 64.4811C71.7598 64.4811 80.4818 55.7591 80.4818 45C80.4818 34.2408 71.7598 25.5188 61.0007 25.5188C50.2415 25.5188 41.5195 34.2408 41.5195 45C41.5195 55.7591 50.2415 64.4811 61.0007 64.4811Z" fill="#F4FBFF"/>
<path d="M61.0005 25.5188C60.4609 25.5188 59.9269 25.5417 59.3984 25.5847C69.4081 26.3996 77.2776 34.7803 77.2776 45C77.2776 55.2196 69.4081 63.6002 59.3984 64.4152C59.9269 64.4583 60.4609 64.4812 61.0005 64.4812C71.7597 64.4812 80.4816 55.7591 80.4816 45C80.4816 34.241 71.7597 25.5188 61.0005 25.5188Z" fill="#DAF1F4"/>
<path d="M61.0006 31.5148C60.5839 31.5148 60.2461 31.1771 60.2461 30.7604V29.6529C60.2461 29.2362 60.5839 28.8984 61.0006 28.8984C61.4173 28.8984 61.7552 29.2362 61.7552 29.6529V30.7604C61.7552 31.1771 61.4173 31.5148 61.0006 31.5148Z" fill="#2B4D66"/>
<path d="M71.028 35.7027C70.8348 35.7027 70.6418 35.629 70.4944 35.4818C70.1998 35.187 70.1998 34.7094 70.4945 34.4147L71.2776 33.6317C71.5722 33.3369 72.05 33.337 72.3447 33.6317C72.6393 33.9264 72.6393 34.404 72.3446 34.6987L71.5615 35.4818C71.4141 35.629 71.2211 35.7027 71.028 35.7027Z" fill="#2B4D66"/>
<path d="M76.2643 45.7546H75.1568C74.74 45.7546 74.4023 45.4168 74.4023 45.0001C74.4023 44.5834 74.7401 44.2456 75.1568 44.2456H76.2643C76.6811 44.2456 77.0187 44.5834 77.0187 45.0001C77.0187 45.4168 76.681 45.7546 76.2643 45.7546Z" fill="#2B4D66"/>
<path d="M71.7524 56.5658C71.5593 56.5658 71.3662 56.492 71.2188 56.3448L70.4358 55.5618C70.1412 55.267 70.1412 54.7894 70.4358 54.4946C70.7305 54.2 71.2082 54.2 71.503 54.4946L72.286 55.2776C72.5806 55.5723 72.5806 56.05 72.286 56.3448C72.1386 56.492 71.9455 56.5658 71.7524 56.5658Z" fill="#2B4D66"/>
<path d="M60.9186 61.02C60.5019 61.02 60.1641 60.6822 60.1641 60.2655V59.1581C60.1641 58.7413 60.5019 58.4036 60.9186 58.4036C61.3353 58.4036 61.673 58.7414 61.673 59.1581V60.2655C61.673 60.6822 61.3353 61.02 60.9186 61.02Z" fill="#2B4D66"/>
<path d="M50.1061 56.5077C49.913 56.5077 49.7198 56.434 49.5726 56.2866C49.2778 55.992 49.2779 55.5142 49.5726 55.2195L50.3557 54.4365C50.6504 54.142 51.128 54.1419 51.4228 54.4366C51.7174 54.7312 51.7174 55.209 51.4227 55.5037L50.6396 56.2867C50.4923 56.4341 50.2991 56.5077 50.1061 56.5077Z" fill="#2B4D66"/>
<path d="M46.7604 45.6726H45.6529C45.2362 45.6726 44.8984 45.3348 44.8984 44.9181C44.8984 44.5014 45.2362 44.1636 45.6529 44.1636H46.7604C47.1771 44.1636 47.5148 44.5014 47.5148 44.9181C47.5149 45.3348 47.1771 45.6726 46.7604 45.6726Z" fill="#2B4D66"/>
<path d="M50.9478 35.6447C50.7547 35.6447 50.5616 35.571 50.4143 35.4237L49.6312 34.6406C49.3365 34.3459 49.3364 33.8683 49.6311 33.5736C49.9258 33.2789 50.4034 33.2788 50.6982 33.5735L51.4813 34.3566C51.7759 34.6512 51.776 35.1289 51.4814 35.4237C51.3339 35.5709 51.1408 35.6447 50.9478 35.6447Z" fill="#2B4D66"/>
<path d="M60.9986 45.7545H54.5904C54.1737 45.7545 53.8359 45.4166 53.8359 44.9999C53.8359 44.5832 54.1737 44.2454 54.5904 44.2454H60.244V34.6461C60.244 34.2294 60.5818 33.8916 60.9985 33.8916C61.4152 33.8916 61.753 34.2294 61.753 34.6461V44.9999C61.7531 45.4166 61.4153 45.7545 60.9986 45.7545Z" fill="#2B4D66"/>
<path d="M68.7416 49.7354C68.6254 49.7354 68.5076 49.7084 68.3971 49.6517L60.6557 45.6708C60.2851 45.4803 60.1392 45.0254 60.3298 44.6548C60.5203 44.2842 60.9752 44.1382 61.3459 44.3288L69.0873 48.3096C69.4579 48.5002 69.6039 48.9551 69.4133 49.3256C69.2794 49.5858 69.0153 49.7354 68.7416 49.7354Z" fill="#DA4A54"/>
<path d="M60.9982 47.0138C62.1105 47.0138 63.0121 46.1122 63.0121 44.9999C63.0121 43.8877 62.1105 42.9861 60.9982 42.9861C59.886 42.9861 58.9844 43.8877 58.9844 44.9999C58.9844 46.1122 59.886 47.0138 60.9982 47.0138Z" fill="#365E7D"/>
</g>
<path d="M120.186 41.116C121.101 41.116 121.927 41.3307 122.664 41.76C123.411 42.1893 123.994 42.7867 124.414 43.552C124.843 44.308 125.058 45.1573 125.058 46.1C125.058 47.0427 124.843 47.8967 124.414 48.662C123.994 49.418 123.411 50.0107 122.664 50.44C121.927 50.8693 121.101 51.084 120.186 51.084C119.421 51.084 118.721 50.9627 118.086 50.72C117.451 50.4773 116.919 50.118 116.49 49.642L117.134 48.984C117.909 49.768 118.912 50.16 120.144 50.16C120.835 50.16 121.465 50.0013 122.034 49.684C122.603 49.3573 123.061 48.914 123.406 48.354C123.761 47.7847 123.961 47.1453 124.008 46.436H118.954V45.582H123.994C123.919 44.9007 123.705 44.294 123.35 43.762C123.005 43.2207 122.552 42.8007 121.992 42.502C121.432 42.194 120.816 42.04 120.144 42.04C118.912 42.04 117.909 42.432 117.134 43.216L116.49 42.558C116.919 42.082 117.451 41.7227 118.086 41.48C118.721 41.2373 119.421 41.116 120.186 41.116ZM129.973 47.724H128.293V51H127.299V43.636H128.293V46.87H129.987L132.577 43.636H133.655L130.757 47.206L133.865 51H132.689L129.973 47.724ZM138.212 51.07C137.502 51.07 136.863 50.9113 136.294 50.594C135.724 50.2673 135.276 49.8193 134.95 49.25C134.623 48.6807 134.46 48.0367 134.46 47.318C134.46 46.5993 134.623 45.9553 134.95 45.386C135.276 44.8167 135.724 44.3733 136.294 44.056C136.863 43.7387 137.502 43.58 138.212 43.58C138.921 43.58 139.56 43.7387 140.13 44.056C140.699 44.3733 141.142 44.8167 141.46 45.386C141.786 45.9553 141.95 46.5993 141.95 47.318C141.95 48.0367 141.786 48.6807 141.46 49.25C141.142 49.8193 140.699 50.2673 140.13 50.594C139.56 50.9113 138.921 51.07 138.212 51.07ZM138.212 50.188C138.734 50.188 139.201 50.0713 139.612 49.838C140.032 49.5953 140.358 49.2547 140.592 48.816C140.825 48.3773 140.942 47.878 140.942 47.318C140.942 46.758 140.825 46.2587 140.592 45.82C140.358 45.3813 140.032 45.0453 139.612 44.812C139.201 44.5693 138.734 44.448 138.212 44.448C137.689 44.448 137.218 44.5693 136.798 44.812C136.387 45.0453 136.06 45.3813 135.818 45.82C135.584 46.2587 135.468 46.758 135.468 47.318C135.468 47.878 135.584 48.3773 135.818 48.816C136.06 49.2547 136.387 49.5953 136.798 49.838C137.218 50.0713 137.689 50.188 138.212 50.188ZM144.074 43.636H145.068V46.898H149.702V43.636H150.696V51H149.702V47.752H145.068V51H144.074V43.636ZM156.559 51.07C155.85 51.07 155.211 50.9113 154.641 50.594C154.072 50.2673 153.624 49.8193 153.297 49.25C152.971 48.6807 152.807 48.0367 152.807 47.318C152.807 46.5993 152.971 45.9553 153.297 45.386C153.624 44.8167 154.072 44.3733 154.641 44.056C155.211 43.7387 155.85 43.58 156.559 43.58C157.269 43.58 157.908 43.7387 158.477 44.056C159.047 44.3733 159.49 44.8167 159.807 45.386C160.134 45.9553 160.297 46.5993 160.297 47.318C160.297 48.0367 160.134 48.6807 159.807 49.25C159.49 49.8193 159.047 50.2673 158.477 50.594C157.908 50.9113 157.269 51.07 156.559 51.07ZM156.559 50.188C157.082 50.188 157.549 50.0713 157.959 49.838C158.379 49.5953 158.706 49.2547 158.939 48.816C159.173 48.3773 159.289 47.878 159.289 47.318C159.289 46.758 159.173 46.2587 158.939 45.82C158.706 45.3813 158.379 45.0453 157.959 44.812C157.549 44.5693 157.082 44.448 156.559 44.448C156.037 44.448 155.565 44.5693 155.145 44.812C154.735 45.0453 154.408 45.3813 154.165 45.82C153.932 46.2587 153.815 46.758 153.815 47.318C153.815 47.878 153.932 48.3773 154.165 48.816C154.408 49.2547 154.735 49.5953 155.145 49.838C155.565 50.0713 156.037 50.188 156.559 50.188ZM170.654 43.636V51H169.744V45.176L166.762 50.104H166.314L163.332 45.162V51H162.422V43.636H163.43L166.552 48.942L169.73 43.636H170.654ZM176.646 46.24C177.57 46.2493 178.27 46.4547 178.746 46.856C179.232 47.2573 179.474 47.836 179.474 48.592C179.474 49.376 179.213 49.978 178.69 50.398C178.177 50.818 177.43 51.0233 176.45 51.014L173.482 51V43.636H174.476V46.212L176.646 46.24ZM176.394 50.258C177.076 50.2673 177.589 50.132 177.934 49.852C178.289 49.5627 178.466 49.1427 178.466 48.592C178.466 48.0507 178.294 47.6493 177.948 47.388C177.603 47.1267 177.085 46.9913 176.394 46.982L174.476 46.954V50.23L176.394 50.258ZM185.813 44.518H183.027V51H182.033V44.518H179.247V43.636H185.813V44.518ZM193.348 47.626H187.188C187.244 48.3913 187.538 49.012 188.07 49.488C188.602 49.9547 189.274 50.188 190.086 50.188C190.543 50.188 190.963 50.1087 191.346 49.95C191.729 49.782 192.06 49.5393 192.34 49.222L192.9 49.866C192.573 50.258 192.163 50.5567 191.668 50.762C191.183 50.9673 190.646 51.07 190.058 51.07C189.302 51.07 188.63 50.9113 188.042 50.594C187.463 50.2673 187.011 49.8193 186.684 49.25C186.357 48.6807 186.194 48.0367 186.194 47.318C186.194 46.5993 186.348 45.9553 186.656 45.386C186.973 44.8167 187.403 44.3733 187.944 44.056C188.495 43.7387 189.111 43.58 189.792 43.58C190.473 43.58 191.085 43.7387 191.626 44.056C192.167 44.3733 192.592 44.8167 192.9 45.386C193.208 45.946 193.362 46.59 193.362 47.318L193.348 47.626ZM189.792 44.434C189.083 44.434 188.485 44.6627 188 45.12C187.524 45.568 187.253 46.156 187.188 46.884H192.41C192.345 46.156 192.069 45.568 191.584 45.12C191.108 44.6627 190.511 44.434 189.792 44.434ZM206.409 50.132V52.778H205.471V51H198.877V52.778H197.939V50.132H198.359C198.853 50.104 199.189 49.74 199.367 49.04C199.544 48.34 199.665 47.36 199.731 46.1L199.829 43.636H205.261V50.132H206.409ZM200.641 46.156C200.594 47.2013 200.505 48.0647 200.375 48.746C200.244 49.418 200.011 49.88 199.675 50.132H204.267V44.518H200.725L200.641 46.156ZM211.384 51.07C210.674 51.07 210.035 50.9113 209.466 50.594C208.896 50.2673 208.448 49.8193 208.122 49.25C207.795 48.6807 207.632 48.0367 207.632 47.318C207.632 46.5993 207.795 45.9553 208.122 45.386C208.448 44.8167 208.896 44.3733 209.466 44.056C210.035 43.7387 210.674 43.58 211.384 43.58C212.093 43.58 212.732 43.7387 213.302 44.056C213.871 44.3733 214.314 44.8167 214.632 45.386C214.958 45.9553 215.122 46.5993 215.122 47.318C215.122 48.0367 214.958 48.6807 214.632 49.25C214.314 49.8193 213.871 50.2673 213.302 50.594C212.732 50.9113 212.093 51.07 211.384 51.07ZM211.384 50.188C211.906 50.188 212.373 50.0713 212.784 49.838C213.204 49.5953 213.53 49.2547 213.764 48.816C213.997 48.3773 214.114 47.878 214.114 47.318C214.114 46.758 213.997 46.2587 213.764 45.82C213.53 45.3813 213.204 45.0453 212.784 44.812C212.373 44.5693 211.906 44.448 211.384 44.448C210.861 44.448 210.39 44.5693 209.97 44.812C209.559 45.0453 209.232 45.3813 208.99 45.82C208.756 46.2587 208.64 46.758 208.64 47.318C208.64 47.878 208.756 48.3773 208.99 48.816C209.232 49.2547 209.559 49.5953 209.97 49.838C210.39 50.0713 210.861 50.188 211.384 50.188ZM227.14 41.2V41.914L223.038 51H221.946L225.978 42.096H220.938V43.93H219.944V41.2H227.14ZM230.784 45.218C232.203 45.218 233.234 45.4747 233.878 45.988C234.532 46.492 234.858 47.2013 234.858 48.116C234.858 48.6853 234.723 49.194 234.452 49.642C234.191 50.09 233.794 50.4447 233.262 50.706C232.73 50.958 232.077 51.084 231.302 51.084C230.602 51.084 229.935 50.972 229.3 50.748C228.675 50.5147 228.171 50.2067 227.788 49.824L228.278 49.026C228.605 49.362 229.034 49.6373 229.566 49.852C230.098 50.0573 230.672 50.16 231.288 50.16C232.1 50.16 232.726 49.978 233.164 49.614C233.612 49.25 233.836 48.7647 233.836 48.158C233.836 47.486 233.584 46.9773 233.08 46.632C232.586 46.2867 231.746 46.114 230.56 46.114H228.474L228.978 41.2H234.34V42.096H229.86L229.524 45.218H230.784ZM238.073 46.45C237.411 46.45 236.874 46.2073 236.463 45.722C236.062 45.2273 235.861 44.5833 235.861 43.79C235.861 42.9967 236.062 42.3573 236.463 41.872C236.874 41.3773 237.411 41.13 238.073 41.13C238.727 41.13 239.259 41.3727 239.669 41.858C240.08 42.3433 240.285 42.9873 240.285 43.79C240.285 44.5927 240.08 45.2367 239.669 45.722C239.259 46.2073 238.727 46.45 238.073 46.45ZM244.009 41.2H244.835L238.143 51H237.317L244.009 41.2ZM238.073 45.82C238.531 45.82 238.895 45.6427 239.165 45.288C239.445 44.924 239.585 44.4247 239.585 43.79C239.585 43.1553 239.445 42.6607 239.165 42.306C238.895 41.942 238.531 41.76 238.073 41.76C237.607 41.76 237.238 41.942 236.967 42.306C236.697 42.67 236.561 43.1647 236.561 43.79C236.561 44.4153 236.697 44.91 236.967 45.274C237.238 45.638 237.607 45.82 238.073 45.82ZM244.079 51.07C243.426 51.07 242.894 50.8273 242.483 50.342C242.073 49.8473 241.867 49.2033 241.867 48.41C241.867 47.6167 242.073 46.9773 242.483 46.492C242.894 45.9973 243.426 45.75 244.079 45.75C244.742 45.75 245.274 45.9973 245.675 46.492C246.086 46.9773 246.291 47.6167 246.291 48.41C246.291 49.2033 246.086 49.8473 245.675 50.342C245.274 50.8273 244.742 51.07 244.079 51.07ZM244.079 50.44C244.546 50.44 244.915 50.258 245.185 49.894C245.456 49.53 245.591 49.0353 245.591 48.41C245.591 47.7847 245.456 47.29 245.185 46.926C244.915 46.562 244.546 46.38 244.079 46.38C243.622 46.38 243.253 46.562 242.973 46.926C242.703 47.2807 242.567 47.7753 242.567 48.41C242.567 49.0447 242.703 49.544 242.973 49.908C243.253 50.2627 243.622 50.44 244.079 50.44ZM256.649 47.192C257.648 47.4253 258.147 48.0273 258.147 48.998C258.147 49.642 257.909 50.1367 257.433 50.482C256.957 50.8273 256.248 51 255.305 51H251.959V43.636H255.207C256.047 43.636 256.705 43.7993 257.181 44.126C257.657 44.4527 257.895 44.9193 257.895 45.526C257.895 45.9273 257.783 46.2727 257.559 46.562C257.344 46.842 257.041 47.052 256.649 47.192ZM252.925 46.912H255.137C255.706 46.912 256.14 46.8047 256.439 46.59C256.747 46.3753 256.901 46.0627 256.901 45.652C256.901 45.2413 256.747 44.9333 256.439 44.728C256.14 44.5227 255.706 44.42 255.137 44.42H252.925V46.912ZM255.263 50.216C255.898 50.216 256.374 50.1133 256.691 49.908C257.008 49.7027 257.167 49.3807 257.167 48.942C257.167 48.5033 257.022 48.1813 256.733 47.976C256.444 47.7613 255.986 47.654 255.361 47.654H252.925V50.216H255.263ZM264.271 43.58C264.961 43.58 265.587 43.7387 266.147 44.056C266.707 44.364 267.145 44.8027 267.463 45.372C267.78 45.9413 267.939 46.59 267.939 47.318C267.939 48.0553 267.78 48.7087 267.463 49.278C267.145 49.8473 266.707 50.2907 266.147 50.608C265.596 50.916 264.971 51.07 264.271 51.07C263.673 51.07 263.132 50.9487 262.647 50.706C262.171 50.454 261.779 50.09 261.471 49.614V53.716H260.477V43.636H261.429V45.092C261.727 44.6067 262.119 44.2333 262.605 43.972C263.099 43.7107 263.655 43.58 264.271 43.58ZM264.201 50.188C264.714 50.188 265.181 50.0713 265.601 49.838C266.021 49.5953 266.347 49.2547 266.581 48.816C266.823 48.3773 266.945 47.878 266.945 47.318C266.945 46.758 266.823 46.2633 266.581 45.834C266.347 45.3953 266.021 45.0547 265.601 44.812C265.181 44.5693 264.714 44.448 264.201 44.448C263.678 44.448 263.207 44.5693 262.787 44.812C262.376 45.0547 262.049 45.3953 261.807 45.834C261.573 46.2633 261.457 46.758 261.457 47.318C261.457 47.878 261.573 48.3773 261.807 48.816C262.049 49.2547 262.376 49.5953 262.787 49.838C263.207 50.0713 263.678 50.188 264.201 50.188ZM276.514 47.626H270.354C270.41 48.3913 270.704 49.012 271.236 49.488C271.768 49.9547 272.44 50.188 273.252 50.188C273.709 50.188 274.129 50.1087 274.512 49.95C274.895 49.782 275.226 49.5393 275.506 49.222L276.066 49.866C275.739 50.258 275.329 50.5567 274.834 50.762C274.349 50.9673 273.812 51.07 273.224 51.07C272.468 51.07 271.796 50.9113 271.208 50.594C270.629 50.2673 270.177 49.8193 269.85 49.25C269.523 48.6807 269.36 48.0367 269.36 47.318C269.36 46.5993 269.514 45.9553 269.822 45.386C270.139 44.8167 270.569 44.3733 271.11 44.056C271.661 43.7387 272.277 43.58 272.958 43.58C273.639 43.58 274.251 43.7387 274.792 44.056C275.333 44.3733 275.758 44.8167 276.066 45.386C276.374 45.946 276.528 46.59 276.528 47.318L276.514 47.626ZM272.958 44.434C272.249 44.434 271.651 44.6627 271.166 45.12C270.69 45.568 270.419 46.156 270.354 46.884H275.576C275.511 46.156 275.235 45.568 274.75 45.12C274.274 44.6627 273.677 44.434 272.958 44.434ZM286.96 43.636V51H286.05V45.176L283.068 50.104H282.62L279.638 45.162V51H278.728V43.636H279.736L282.858 48.942L286.036 43.636H286.96ZM296.229 47.626H290.069C290.125 48.3913 290.419 49.012 290.951 49.488C291.483 49.9547 292.155 50.188 292.967 50.188C293.424 50.188 293.844 50.1087 294.227 49.95C294.61 49.782 294.941 49.5393 295.221 49.222L295.781 49.866C295.454 50.258 295.044 50.5567 294.549 50.762C294.064 50.9673 293.527 51.07 292.939 51.07C292.183 51.07 291.511 50.9113 290.923 50.594C290.344 50.2673 289.892 49.8193 289.565 49.25C289.238 48.6807 289.075 48.0367 289.075 47.318C289.075 46.5993 289.229 45.9553 289.537 45.386C289.854 44.8167 290.284 44.3733 290.825 44.056C291.376 43.7387 291.992 43.58 292.673 43.58C293.354 43.58 293.966 43.7387 294.507 44.056C295.048 44.3733 295.473 44.8167 295.781 45.386C296.089 45.946 296.243 46.59 296.243 47.318L296.229 47.626ZM292.673 44.434C291.964 44.434 291.366 44.6627 290.881 45.12C290.405 45.568 290.134 46.156 290.069 46.884H295.291C295.226 46.156 294.95 45.568 294.465 45.12C293.989 44.6627 293.392 44.434 292.673 44.434ZM298.443 43.636H299.437V46.898H304.071V43.636H305.065V51H304.071V47.752H299.437V51H298.443V43.636ZM307.891 43.636H308.885V49.488L313.799 43.636H314.681V51H313.687V45.148L308.787 51H307.891V43.636ZM321.193 43.636H322.187V46.898H326.821V43.636H327.815V51H326.821V47.752H322.187V51H321.193V43.636ZM333.175 43.58C334.136 43.58 334.873 43.8227 335.387 44.308C335.9 44.784 336.157 45.4933 336.157 46.436V51H335.205V49.852C334.981 50.2347 334.649 50.5333 334.211 50.748C333.781 50.9627 333.268 51.07 332.671 51.07C331.849 51.07 331.196 50.874 330.711 50.482C330.225 50.09 329.983 49.572 329.983 48.928C329.983 48.3027 330.207 47.7987 330.655 47.416C331.112 47.0333 331.835 46.842 332.825 46.842H335.163V46.394C335.163 45.7593 334.985 45.2787 334.631 44.952C334.276 44.616 333.758 44.448 333.077 44.448C332.61 44.448 332.162 44.5273 331.733 44.686C331.303 44.8353 330.935 45.0453 330.627 45.316L330.179 44.574C330.552 44.2567 331 44.014 331.523 43.846C332.045 43.6687 332.596 43.58 333.175 43.58ZM332.825 50.286C333.385 50.286 333.865 50.16 334.267 49.908C334.668 49.6467 334.967 49.2733 335.163 48.788V47.584H332.853C331.593 47.584 330.963 48.0227 330.963 48.9C330.963 49.3293 331.126 49.67 331.453 49.922C331.779 50.1647 332.237 50.286 332.825 50.286ZM346.261 43.58C346.951 43.58 347.577 43.7387 348.137 44.056C348.697 44.364 349.135 44.8027 349.453 45.372C349.77 45.9413 349.929 46.59 349.929 47.318C349.929 48.0553 349.77 48.7087 349.453 49.278C349.135 49.8473 348.697 50.2907 348.137 50.608C347.586 50.916 346.961 51.07 346.261 51.07C345.663 51.07 345.122 50.9487 344.637 50.706C344.161 50.454 343.769 50.09 343.461 49.614V53.716H342.467V43.636H343.419V45.092C343.717 44.6067 344.109 44.2333 344.595 43.972C345.089 43.7107 345.645 43.58 346.261 43.58ZM346.191 50.188C346.704 50.188 347.171 50.0713 347.591 49.838C348.011 49.5953 348.337 49.2547 348.571 48.816C348.813 48.3773 348.935 47.878 348.935 47.318C348.935 46.758 348.813 46.2633 348.571 45.834C348.337 45.3953 348.011 45.0547 347.591 44.812C347.171 44.5693 346.704 44.448 346.191 44.448C345.668 44.448 345.197 44.5693 344.777 44.812C344.366 45.0547 344.039 45.3953 343.797 45.834C343.563 46.2633 343.447 46.758 343.447 47.318C343.447 47.878 343.563 48.3773 343.797 48.816C344.039 49.2547 344.366 49.5953 344.777 49.838C345.197 50.0713 345.668 50.188 346.191 50.188ZM358.504 47.626H352.344C352.4 48.3913 352.694 49.012 353.226 49.488C353.758 49.9547 354.43 50.188 355.242 50.188C355.7 50.188 356.12 50.1087 356.502 49.95C356.885 49.782 357.216 49.5393 357.496 49.222L358.056 49.866C357.73 50.258 357.319 50.5567 356.824 50.762C356.339 50.9673 355.802 51.07 355.214 51.07C354.458 51.07 353.786 50.9113 353.198 50.594C352.62 50.2673 352.167 49.8193 351.84 49.25C351.514 48.6807 351.35 48.0367 351.35 47.318C351.35 46.5993 351.504 45.9553 351.812 45.386C352.13 44.8167 352.559 44.3733 353.1 44.056C353.651 43.7387 354.267 43.58 354.948 43.58C355.63 43.58 356.241 43.7387 356.782 44.056C357.324 44.3733 357.748 44.8167 358.056 45.386C358.364 45.946 358.518 46.59 358.518 47.318L358.504 47.626ZM354.948 44.434C354.239 44.434 353.642 44.6627 353.156 45.12C352.68 45.568 352.41 46.156 352.344 46.884H357.566C357.501 46.156 357.226 45.568 356.74 45.12C356.264 44.6627 355.667 44.434 354.948 44.434ZM370.883 43.636V51H360.719V43.636H361.713V50.132H365.325V43.636H366.319V50.132H369.889V43.636H370.883ZM380.161 47.626H374.001C374.057 48.3913 374.351 49.012 374.883 49.488C375.415 49.9547 376.087 50.188 376.899 50.188C377.356 50.188 377.776 50.1087 378.159 49.95C378.541 49.782 378.873 49.5393 379.153 49.222L379.713 49.866C379.386 50.258 378.975 50.5567 378.481 50.762C377.995 50.9673 377.459 51.07 376.871 51.07C376.115 51.07 375.443 50.9113 374.855 50.594C374.276 50.2673 373.823 49.8193 373.497 49.25C373.17 48.6807 373.007 48.0367 373.007 47.318C373.007 46.5993 373.161 45.9553 373.469 45.386C373.786 44.8167 374.215 44.3733 374.757 44.056C375.307 43.7387 375.923 43.58 376.605 43.58C377.286 43.58 377.897 43.7387 378.439 44.056C378.98 44.3733 379.405 44.8167 379.713 45.386C380.021 45.946 380.175 46.59 380.175 47.318L380.161 47.626ZM376.605 44.434C375.895 44.434 375.298 44.6627 374.813 45.12C374.337 45.568 374.066 46.156 374.001 46.884H379.223C379.157 46.156 378.882 45.568 378.397 45.12C377.921 44.6627 377.323 44.434 376.605 44.434ZM382.375 43.636H383.369V46.898H388.003V43.636H388.997V51H388.003V47.752H383.369V51H382.375V43.636ZM391.822 43.636H392.816V49.488L397.73 43.636H398.612V51H397.618V45.148L392.718 51H391.822V43.636ZM401.461 43.636H402.455V49.488L407.369 43.636H408.251V51H407.257V45.148L402.357 51H401.461V43.636ZM423.654 47.304C423.654 48.452 423.276 49.3527 422.52 50.006C421.764 50.6593 420.695 51.014 419.314 51.07V53.716H418.348V51.084C416.976 51.028 415.912 50.6733 415.156 50.02C414.409 49.3573 414.036 48.452 414.036 47.304C414.036 46.1653 414.409 45.274 415.156 44.63C415.912 43.986 416.976 43.636 418.348 43.58V40.612H419.314V43.58C420.695 43.6453 421.764 44 422.52 44.644C423.276 45.288 423.654 46.1747 423.654 47.304ZM415.016 47.304C415.016 48.1813 415.296 48.8673 415.856 49.362C416.425 49.8567 417.256 50.1367 418.348 50.202V44.462C417.265 44.518 416.439 44.7933 415.87 45.288C415.3 45.7733 415.016 46.4453 415.016 47.304ZM419.314 50.202C420.406 50.146 421.236 49.8707 421.806 49.376C422.384 48.8813 422.674 48.1907 422.674 47.304C422.674 46.436 422.384 45.7593 421.806 45.274C421.236 44.7887 420.406 44.518 419.314 44.462V50.202ZM429.55 43.58C430.24 43.58 430.866 43.7387 431.426 44.056C431.986 44.364 432.424 44.8027 432.742 45.372C433.059 45.9413 433.218 46.59 433.218 47.318C433.218 48.0553 433.059 48.7087 432.742 49.278C432.424 49.8473 431.986 50.2907 431.426 50.608C430.875 50.916 430.25 51.07 429.55 51.07C428.952 51.07 428.411 50.9487 427.926 50.706C427.45 50.454 427.058 50.09 426.75 49.614V53.716H425.756V43.636H426.708V45.092C427.006 44.6067 427.398 44.2333 427.884 43.972C428.378 43.7107 428.934 43.58 429.55 43.58ZM429.48 50.188C429.993 50.188 430.46 50.0713 430.88 49.838C431.3 49.5953 431.626 49.2547 431.86 48.816C432.102 48.3773 432.224 47.878 432.224 47.318C432.224 46.758 432.102 46.2633 431.86 45.834C431.626 45.3953 431.3 45.0547 430.88 44.812C430.46 44.5693 429.993 44.448 429.48 44.448C428.957 44.448 428.486 44.5693 428.066 44.812C427.655 45.0547 427.328 45.3953 427.086 45.834C426.852 46.2633 426.736 46.758 426.736 47.318C426.736 47.878 426.852 48.3773 427.086 48.816C427.328 49.2547 427.655 49.5953 428.066 49.838C428.486 50.0713 428.957 50.188 429.48 50.188ZM435.353 43.636H436.347V49.488L441.261 43.636H442.143V51H441.149V45.148L436.249 51H435.353V43.636ZM451.012 43.636V51H450.018V44.518H446.49L446.392 46.338C446.317 47.8687 446.14 49.0447 445.86 49.866C445.58 50.6873 445.081 51.098 444.362 51.098C444.166 51.098 443.928 51.0607 443.648 50.986L443.718 50.132C443.886 50.1693 444.003 50.188 444.068 50.188C444.451 50.188 444.74 50.0107 444.936 49.656C445.132 49.3013 445.263 48.8627 445.328 48.34C445.393 47.8173 445.449 47.1267 445.496 46.268L445.622 43.636H451.012ZM456.372 43.58C457.333 43.58 458.07 43.8227 458.584 44.308C459.097 44.784 459.354 45.4933 459.354 46.436V51H458.402V49.852C458.178 50.2347 457.846 50.5333 457.408 50.748C456.978 50.9627 456.465 51.07 455.868 51.07C455.046 51.07 454.393 50.874 453.908 50.482C453.422 50.09 453.18 49.572 453.18 48.928C453.18 48.3027 453.404 47.7987 453.852 47.416C454.309 47.0333 455.032 46.842 456.022 46.842H458.36V46.394C458.36 45.7593 458.182 45.2787 457.828 44.952C457.473 44.616 456.955 44.448 456.274 44.448C455.807 44.448 455.359 44.5273 454.93 44.686C454.5 44.8353 454.132 45.0453 453.824 45.316L453.376 44.574C453.749 44.2567 454.197 44.014 454.72 43.846C455.242 43.6687 455.793 43.58 456.372 43.58ZM456.022 50.286C456.582 50.286 457.062 50.16 457.464 49.908C457.865 49.6467 458.164 49.2733 458.36 48.788V47.584H456.05C454.79 47.584 454.16 48.0227 454.16 48.9C454.16 49.3293 454.323 49.67 454.65 49.922C454.976 50.1647 455.434 50.286 456.022 50.286ZM462 43.636H462.994V46.898H467.628V43.636H468.622V51H467.628V47.752H462.994V51H462V43.636ZM474.527 51.07C473.799 51.07 473.146 50.9113 472.567 50.594C471.998 50.2767 471.55 49.8333 471.223 49.264C470.897 48.6853 470.733 48.0367 470.733 47.318C470.733 46.5993 470.897 45.9553 471.223 45.386C471.55 44.8167 471.998 44.3733 472.567 44.056C473.146 43.7387 473.799 43.58 474.527 43.58C475.162 43.58 475.727 43.706 476.221 43.958C476.725 44.2007 477.122 44.56 477.411 45.036L476.669 45.54C476.427 45.176 476.119 44.9053 475.745 44.728C475.372 44.5413 474.966 44.448 474.527 44.448C473.995 44.448 473.515 44.5693 473.085 44.812C472.665 45.0453 472.334 45.3813 472.091 45.82C471.858 46.2587 471.741 46.758 471.741 47.318C471.741 47.8873 471.858 48.3913 472.091 48.83C472.334 49.2593 472.665 49.5953 473.085 49.838C473.515 50.0713 473.995 50.188 474.527 50.188C474.966 50.188 475.372 50.0993 475.745 49.922C476.119 49.7447 476.427 49.474 476.669 49.11L477.411 49.614C477.122 50.09 476.725 50.454 476.221 50.706C475.717 50.9487 475.153 51.07 474.527 51.07ZM486.584 47.164C487.107 47.2853 487.508 47.4953 487.788 47.794C488.077 48.0927 488.222 48.4567 488.222 48.886C488.222 49.3153 488.073 49.698 487.774 50.034C487.485 50.37 487.088 50.6313 486.584 50.818C486.08 50.9953 485.525 51.084 484.918 51.084C484.386 51.084 483.863 51.0093 483.35 50.86C482.837 50.7013 482.389 50.4727 482.006 50.174L482.342 49.432C482.678 49.684 483.07 49.88 483.518 50.02C483.966 50.16 484.419 50.23 484.876 50.23C485.557 50.23 486.113 50.104 486.542 49.852C486.981 49.5907 487.2 49.2407 487.2 48.802C487.2 48.41 487.023 48.1067 486.668 47.892C486.313 47.668 485.828 47.556 485.212 47.556H483.952V46.828H485.156C485.707 46.828 486.15 46.7253 486.486 46.52C486.822 46.3053 486.99 46.0207 486.99 45.666C486.99 45.274 486.799 44.966 486.416 44.742C486.043 44.518 485.553 44.406 484.946 44.406C484.153 44.406 483.369 44.6067 482.594 45.008L482.314 44.238C483.191 43.7807 484.101 43.552 485.044 43.552C485.604 43.552 486.108 43.636 486.556 43.804C487.013 43.9627 487.368 44.1913 487.62 44.49C487.881 44.7887 488.012 45.134 488.012 45.526C488.012 45.8993 487.881 46.2307 487.62 46.52C487.368 46.8093 487.023 47.024 486.584 47.164ZM493.012 43.58C493.974 43.58 494.711 43.8227 495.224 44.308C495.738 44.784 495.994 45.4933 495.994 46.436V51H495.042V49.852C494.818 50.2347 494.487 50.5333 494.048 50.748C493.619 50.9627 493.106 51.07 492.508 51.07C491.687 51.07 491.034 50.874 490.548 50.482C490.063 50.09 489.82 49.572 489.82 48.928C489.82 48.3027 490.044 47.7987 490.492 47.416C490.95 47.0333 491.673 46.842 492.662 46.842H495V46.394C495 45.7593 494.823 45.2787 494.468 44.952C494.114 44.616 493.596 44.448 492.914 44.448C492.448 44.448 492 44.5273 491.57 44.686C491.141 44.8353 490.772 45.0453 490.464 45.316L490.016 44.574C490.39 44.2567 490.838 44.014 491.36 43.846C491.883 43.6687 492.434 43.58 493.012 43.58ZM492.662 50.286C493.222 50.286 493.703 50.16 494.104 49.908C494.506 49.6467 494.804 49.2733 495 48.788V47.584H492.69C491.43 47.584 490.8 48.0227 490.8 48.9C490.8 49.3293 490.964 49.67 491.29 49.922C491.617 50.1647 492.074 50.286 492.662 50.286ZM505.823 50.132V52.778H504.885V51H498.291V52.778H497.353V50.132H497.773C498.267 50.104 498.603 49.74 498.781 49.04C498.958 48.34 499.079 47.36 499.145 46.1L499.243 43.636H504.675V50.132H505.823ZM500.055 46.156C500.008 47.2013 499.919 48.0647 499.789 48.746C499.658 49.418 499.425 49.88 499.089 50.132H503.681V44.518H500.139L500.055 46.156ZM510.294 43.58C511.255 43.58 511.992 43.8227 512.506 44.308C513.019 44.784 513.276 45.4933 513.276 46.436V51H512.324V49.852C512.1 50.2347 511.768 50.5333 511.33 50.748C510.9 50.9627 510.387 51.07 509.79 51.07C508.968 51.07 508.315 50.874 507.83 50.482C507.344 50.09 507.102 49.572 507.102 48.928C507.102 48.3027 507.326 47.7987 507.774 47.416C508.231 47.0333 508.954 46.842 509.944 46.842H512.282V46.394C512.282 45.7593 512.104 45.2787 511.75 44.952C511.395 44.616 510.877 44.448 510.196 44.448C509.729 44.448 509.281 44.5273 508.852 44.686C508.422 44.8353 508.054 45.0453 507.746 45.316L507.298 44.574C507.671 44.2567 508.119 44.014 508.642 43.846C509.164 43.6687 509.715 43.58 510.294 43.58ZM509.944 50.286C510.504 50.286 510.984 50.16 511.386 49.908C511.787 49.6467 512.086 49.2733 512.282 48.788V47.584H509.972C508.712 47.584 508.082 48.0227 508.082 48.9C508.082 49.3293 508.245 49.67 508.572 49.922C508.898 50.1647 509.356 50.286 509.944 50.286ZM521.48 43.636V51H520.486V47.934C519.636 48.3073 518.801 48.494 517.98 48.494C517.093 48.494 516.402 48.2933 515.908 47.892C515.413 47.4813 515.166 46.87 515.166 46.058V43.636H516.16V46.002C516.16 46.5527 516.337 46.9727 516.692 47.262C517.046 47.542 517.536 47.682 518.162 47.682C518.852 47.682 519.627 47.5 520.486 47.136V43.636H521.48Z" fill="#222222"/>
<defs>
<filter id="filter0_d_9_60" x="0" y="0" width="565" height="122" filterUnits="userSpaceOnUse" color-interpolation-filters="sRGB">
<feFlood flood-opacity="0" result="BackgroundImageFix"/>
<feColorMatrix in="SourceAlpha" type="matrix" values="0 0 0 0 0 0 0 0 0 0 0 0 0 0 0 0 0 0 127 0" result="hardAlpha"/>
<feOffset dy="16"/>
<feGaussianBlur stdDeviation="8"/>
<feColorMatrix type="matrix" values="0 0 0 0 0 0 0 0 0 0 0 0 0 0 0 0 0 0 0.04 0"/>
<feBlend mode="normal" in2="BackgroundImageFix" result="effect1_dropShadow_9_60"/>
<feBlend mode="normal" in="SourceGraphic" in2="effect1_dropShadow_9_60" result="shape"/>
</filter>
<clipPath id="clip0_9_60">
<rect width="50" height="50" fill="white" transform="translate(36 20)"/>
</clipPath>
</defs>
</svg>
